solid OpenSCAD_Model
  facet normal 0.0490735 0.998795 0
    outer loop
      vertex -0.803741 -6.86051 0.4
      vertex -0.803741 -6.86051 2.3
      vertex 0 -6.9 0.4
    endloop
  endfacet
  facet normal 0 0 1
    outer loop
      vertex -0.803741 -6.86051 0.4
      vertex 0 -6.9 0.4
      vertex -0.803741 9.46051 0.4
    endloop
  endfacet
  facet normal 0 0 -1
    outer loop
      vertex -0.803741 -6.86051 2.3
      vertex -0.803741 9.46051 2.3
      vertex 0 9.5 2.3
    endloop
  endfacet
  facet normal 0.0490735 0.998795 0
    outer loop
      vertex -0.803741 -6.86051 2.3
      vertex 0 -6.9 2.3
      vertex 0 -6.9 0.4
    endloop
  endfacet
  facet normal 0 0 -1
    outer loop
      vertex -0.803741 -6.86051 2.3
      vertex 0 9.5 2.3
      vertex 0 -6.9 2.3
    endloop
  endfacet
  facet normal 0 0 1
    outer loop
      vertex -0.803741 9.46051 0.4
      vertex 0 -6.9 0.4
      vertex 0 9.5 0.4
    endloop
  endfacet
  facet normal 0.0490735 -0.998795 0
    outer loop
      vertex -0.803741 9.46051 0.4
      vertex 0 9.5 0.4
      vertex 0 9.5 2.3
    endloop
  endfacet
  facet normal 0.0490735 -0.998795 0
    outer loop
      vertex -0.803741 9.46051 0.4
      vertex 0 9.5 2.3
      vertex -0.803741 9.46051 2.3
    endloop
  endfacet
  facet normal 0 0 -1
    outer loop
      vertex -1.03483 -9.84577 0
      vertex -1.03483 9.84577 0
      vertex 0 9.9 0
    endloop
  endfacet
  facet normal -0.0523329 -0.99863 0
    outer loop
      vertex -1.03483 -9.84577 0
      vertex 0 -9.9 0
      vertex 0 -9.9 3
    endloop
  endfacet
  facet normal -0.0523329 -0.99863 0
    outer loop
      vertex -1.03483 -9.84577 0
      vertex 0 -9.9 3
      vertex -1.03483 -9.84577 3
    endloop
  endfacet
  facet normal 0 0 -1
    outer loop
      vertex -1.03483 -9.84577 0
      vertex 0 9.9 0
      vertex 0 -9.9 0
    endloop
  endfacet
  facet normal -0.0523329 0.99863 0
    outer loop
      vertex -1.03483 9.84577 0
      vertex -1.03483 9.84577 3
      vertex 0 9.9 0
    endloop
  endfacet
  facet normal -0.0523329 0.99863 0
    outer loop
      vertex -1.03483 9.84577 3
      vertex 0 9.9 3
      vertex 0 9.9 0
    endloop
  endfacet
  facet normal 0 0 1
    outer loop
      vertex -1.03483 9.84577 3
      vertex 0.131226 8.89807 3
      vertex 0 9.9 3
    endloop
  endfacet
  facet normal 0 0 1
    outer loop
      vertex -1.59974 -6.74244 0.4
      vertex -0.803741 -6.86051 0.4
      vertex -1.59974 9.34244 0.4
    endloop
  endfacet
  facet normal 0.146724 0.989177 0
    outer loop
      vertex -1.59974 -6.74244 0.4
      vertex -1.59974 -6.74244 2.3
      vertex -0.803741 -6.86051 0.4
    endloop
  endfacet
  facet normal 0.146724 0.989177 0
    outer loop
      vertex -1.59974 -6.74244 2.3
      vertex -0.803741 -6.86051 2.3
      vertex -0.803741 -6.86051 0.4
    endloop
  endfacet
  facet normal 0 0 -1
    outer loop
      vertex -1.59974 -6.74244 2.3
      vertex -0.803741 9.46051 2.3
      vertex -0.803741 -6.86051 2.3
    endloop
  endfacet
  facet normal 0 0 -1
    outer loop
      vertex -1.59974 -6.74244 2.3
      vertex -1.59974 9.34244 2.3
      vertex -0.803741 9.46051 2.3
    endloop
  endfacet
  facet normal 0 0 1
    outer loop
      vertex -1.59974 9.34244 0.4
      vertex -0.803741 -6.86051 0.4
      vertex -0.803741 9.46051 0.4
    endloop
  endfacet
  facet normal 0.146724 -0.989177 0
    outer loop
      vertex -1.59974 9.34244 0.4
      vertex -0.803741 9.46051 0.4
      vertex -0.803741 9.46051 2.3
    endloop
  endfacet
  facet normal 0.146724 -0.989177 0
    outer loop
      vertex -1.59974 9.34244 0.4
      vertex -0.803741 9.46051 2.3
      vertex -1.59974 9.34244 2.3
    endloop
  endfacet
  facet normal -0.156439 -0.987688 0
    outer loop
      vertex -2.05832 -9.68366 0
      vertex -1.03483 -9.84577 0
      vertex -1.03483 -9.84577 3
    endloop
  endfacet
  facet normal -0.156439 -0.987688 0
    outer loop
      vertex -2.05832 -9.68366 0
      vertex -1.03483 -9.84577 3
      vertex -2.05832 -9.68366 3
    endloop
  endfacet
  facet normal 0 0 -1
    outer loop
      vertex -2.05832 -9.68366 0
      vertex -1.03483 9.84577 0
      vertex -1.03483 -9.84577 0
    endloop
  endfacet
  facet normal 0 0 -1
    outer loop
      vertex -2.05832 -9.68366 0
      vertex -2.05832 9.68366 0
      vertex -1.03483 9.84577 0
    endloop
  endfacet
  facet normal -0.156439 0.987688 0
    outer loop
      vertex -2.05832 9.68366 0
      vertex -2.05832 9.68366 3
      vertex -1.03483 9.84577 0
    endloop
  endfacet
  facet normal -0.156439 0.987688 0
    outer loop
      vertex -2.05832 9.68366 3
      vertex -1.03483 9.84577 3
      vertex -1.03483 9.84577 0
    endloop
  endfacet
  facet normal 0 0 1
    outer loop
      vertex -2.05832 9.68366 3
      vertex 0.131226 8.89807 3
      vertex -1.03483 9.84577 3
    endloop
  endfacet
  facet normal 0 0 1
    outer loop
      vertex -2.38033 -6.54691 0.4
      vertex -1.59974 -6.74244 0.4
      vertex -2.38033 9.14691 0.4
    endloop
  endfacet
  facet normal 0.242983 0.970031 0
    outer loop
      vertex -2.38033 -6.54691 0.4
      vertex -2.38033 -6.54691 2.3
      vertex -1.59974 -6.74244 0.4
    endloop
  endfacet
  facet normal 0.242983 0.970031 0
    outer loop
      vertex -2.38033 -6.54691 2.3
      vertex -1.59974 -6.74244 2.3
      vertex -1.59974 -6.74244 0.4
    endloop
  endfacet
  facet normal 0 0 -1
    outer loop
      vertex -2.38033 -6.54691 2.3
      vertex -1.59974 9.34244 2.3
      vertex -1.59974 -6.74244 2.3
    endloop
  endfacet
  facet normal 0 0 -1
    outer loop
      vertex -2.38033 -6.54691 2.3
      vertex -2.38033 9.14691 2.3
      vertex -1.59974 9.34244 2.3
    endloop
  endfacet
  facet normal 0 0 1
    outer loop
      vertex -2.38033 9.14691 0.4
      vertex -1.59974 -6.74244 0.4
      vertex -1.59974 9.34244 0.4
    endloop
  endfacet
  facet normal 0.242983 -0.970031 0
    outer loop
      vertex -2.38033 9.14691 0.4
      vertex -1.59974 9.34244 0.4
      vertex -1.59974 9.34244 2.3
    endloop
  endfacet
  facet normal 0.242983 -0.970031 0
    outer loop
      vertex -2.38033 9.14691 0.4
      vertex -1.59974 9.34244 2.3
      vertex -2.38033 9.14691 2.3
    endloop
  endfacet
  facet normal -0.258816 -0.965927 0
    outer loop
      vertex -3.05927 -9.41546 0
      vertex -2.05832 -9.68366 0
      vertex -2.05832 -9.68366 3
    endloop
  endfacet
  facet normal -0.258816 -0.965927 0
    outer loop
      vertex -3.05927 -9.41546 0
      vertex -2.05832 -9.68366 3
      vertex -3.05927 -9.41546 3
    endloop
  endfacet
  facet normal 0 0 -1
    outer loop
      vertex -3.05927 -9.41546 0
      vertex -2.05832 9.68366 0
      vertex -2.05832 -9.68366 0
    endloop
  endfacet
  facet normal 0 0 -1
    outer loop
      vertex -3.05927 -9.41546 0
      vertex -3.05927 9.41546 0
      vertex -2.05832 9.68366 0
    endloop
  endfacet
  facet normal -0.258816 0.965927 0
    outer loop
      vertex -3.05927 9.41546 0
      vertex -3.05927 9.41546 3
      vertex -2.05832 9.68366 0
    endloop
  endfacet
  facet normal -0.258816 0.965927 0
    outer loop
      vertex -3.05927 9.41546 3
      vertex -2.05832 9.68366 3
      vertex -2.05832 9.68366 0
    endloop
  endfacet
  facet normal 0 0 1
    outer loop
      vertex -3.05927 9.41546 3
      vertex 0.131226 8.89807 3
      vertex -2.05832 9.68366 3
    endloop
  endfacet
  facet normal 0 0 1
    outer loop
      vertex -3.138 -6.27581 0.4
      vertex -2.38033 -6.54691 0.4
      vertex -3.138 8.87581 0.4
    endloop
  endfacet
  facet normal 0.336891 0.941544 0
    outer loop
      vertex -3.138 -6.27581 0.4
      vertex -3.138 -6.27581 2.3
      vertex -2.38033 -6.54691 0.4
    endloop
  endfacet
  facet normal 0.336891 0.941544 0
    outer loop
      vertex -3.138 -6.27581 2.3
      vertex -2.38033 -6.54691 2.3
      vertex -2.38033 -6.54691 0.4
    endloop
  endfacet
  facet normal 0 0 -1
    outer loop
      vertex -3.138 -6.27581 2.3
      vertex -2.38033 9.14691 2.3
      vertex -2.38033 -6.54691 2.3
    endloop
  endfacet
  facet normal 0 0 -1
    outer loop
      vertex -3.138 -6.27581 2.3
      vertex -3.138 8.87581 2.3
      vertex -2.38033 9.14691 2.3
    endloop
  endfacet
  facet normal 0 0 1
    outer loop
      vertex -3.138 8.87581 0.4
      vertex -2.38033 -6.54691 0.4
      vertex -2.38033 9.14691 0.4
    endloop
  endfacet
  facet normal 0.336891 -0.941544 0
    outer loop
      vertex -3.138 8.87581 0.4
      vertex -2.38033 9.14691 0.4
      vertex -2.38033 9.14691 2.3
    endloop
  endfacet
  facet normal 0.336891 -0.941544 0
    outer loop
      vertex -3.138 8.87581 0.4
      vertex -2.38033 9.14691 2.3
      vertex -3.138 8.87581 2.3
    endloop
  endfacet
  facet normal 0 1 0
    outer loop
      vertex -3.72052 1.2 2.6
      vertex -3.72052 1.2 3
      vertex 3.98299 1.2 2.6
    endloop
  endfacet
  facet normal 0.894301 -0.447466 0
    outer loop
      vertex -3.72052 1.2 2.6
      vertex 0.131226 8.89807 2.6
      vertex -3.72052 1.2 3
    endloop
  endfacet
  facet normal 0 0 1
    outer loop
      vertex -3.72052 1.2 2.6
      vertex 3.98299 1.2 2.6
      vertex 0.131226 8.89807 2.6
    endloop
  endfacet
  facet normal 0 0 1
    outer loop
      vertex -3.72052 1.2 3
      vertex -1.03483 -9.84577 3
      vertex 0 -9.9 3
    endloop
  endfacet
  facet normal 0 0 1
    outer loop
      vertex -3.72052 1.2 3
      vertex -2.05832 -9.68366 3
      vertex -1.03483 -9.84577 3
    endloop
  endfacet
  facet normal 0 0 1
    outer loop
      vertex -3.72052 1.2 3
      vertex -3.05927 -9.41546 3
      vertex -2.05832 -9.68366 3
    endloop
  endfacet
  facet normal 0 0 1
    outer loop
      vertex -3.72052 1.2 3
      vertex 0 -9.9 3
      vertex 3.98299 1.2 3
    endloop
  endfacet
  facet normal 0.894301 -0.447466 0
    outer loop
      vertex -3.72052 1.2 3
      vertex 0.131226 8.89807 2.6
      vertex 0.131226 8.89807 3
    endloop
  endfacet
  facet normal 0 1 0
    outer loop
      vertex -3.72052 1.2 3
      vertex 3.98299 1.2 3
      vertex 3.98299 1.2 2.6
    endloop
  endfacet
  facet normal 0 0 1
    outer loop
      vertex -3.86545 -5.93175 0.4
      vertex -3.138 -6.27581 0.4
      vertex -3.86545 8.53175 0.4
    endloop
  endfacet
  facet normal 0.427557 0.903988 0
    outer loop
      vertex -3.86545 -5.93175 0.4
      vertex -3.86545 -5.93175 2.3
      vertex -3.138 -6.27581 0.4
    endloop
  endfacet
  facet normal 0.427557 0.903988 0
    outer loop
      vertex -3.86545 -5.93175 2.3
      vertex -3.138 -6.27581 2.3
      vertex -3.138 -6.27581 0.4
    endloop
  endfacet
  facet normal 0 0 -1
    outer loop
      vertex -3.86545 -5.93175 2.3
      vertex -3.138 8.87581 2.3
      vertex -3.138 -6.27581 2.3
    endloop
  endfacet
  facet normal 0 0 -1
    outer loop
      vertex -3.86545 -5.93175 2.3
      vertex -3.86545 8.53175 2.3
      vertex -3.138 8.87581 2.3
    endloop
  endfacet
  facet normal 0 0 1
    outer loop
      vertex -3.86545 8.53175 0.4
      vertex -3.138 -6.27581 0.4
      vertex -3.138 8.87581 0.4
    endloop
  endfacet
  facet normal 0.427557 -0.903988 0
    outer loop
      vertex -3.86545 8.53175 0.4
      vertex -3.138 8.87581 0.4
      vertex -3.138 8.87581 2.3
    endloop
  endfacet
  facet normal 0.427557 -0.903988 0
    outer loop
      vertex -3.86545 8.53175 0.4
      vertex -3.138 8.87581 2.3
      vertex -3.86545 8.53175 2.3
    endloop
  endfacet
  facet normal -0.35837 -0.93358 0
    outer loop
      vertex -4.02669 -9.0441 0
      vertex -3.05927 -9.41546 0
      vertex -3.05927 -9.41546 3
    endloop
  endfacet
  facet normal -0.35837 -0.93358 0
    outer loop
      vertex -4.02669 -9.0441 0
      vertex -3.05927 -9.41546 3
      vertex -4.02669 -9.0441 3
    endloop
  endfacet
  facet normal 0 0 -1
    outer loop
      vertex -4.02669 -9.0441 0
      vertex -3.05927 9.41546 0
      vertex -3.05927 -9.41546 0
    endloop
  endfacet
  facet normal 0 0 -1
    outer loop
      vertex -4.02669 -9.0441 0
      vertex -4.02669 9.0441 0
      vertex -3.05927 9.41546 0
    endloop
  endfacet
  facet normal 0 0 1
    outer loop
      vertex -4.02669 -9.0441 3
      vertex -3.05927 -9.41546 3
      vertex -3.72052 1.2 3
    endloop
  endfacet
  facet normal -0.35837 0.93358 0
    outer loop
      vertex -4.02669 9.0441 0
      vertex -4.02669 9.0441 3
      vertex -3.05927 9.41546 0
    endloop
  endfacet
  facet normal -0.35837 0.93358 0
    outer loop
      vertex -4.02669 9.0441 3
      vertex -3.05927 9.41546 3
      vertex -3.05927 9.41546 0
    endloop
  endfacet
  facet normal 0 0 1
    outer loop
      vertex -4.02669 9.0441 3
      vertex -3.72052 1.2 3
      vertex 0.131226 8.89807 3
    endloop
  endfacet
  facet normal 0 0 1
    outer loop
      vertex -4.02669 9.0441 3
      vertex 0.131226 8.89807 3
      vertex -3.05927 9.41546 3
    endloop
  endfacet
  facet normal 0 0 1
    outer loop
      vertex -4.55568 -5.51805 0.4
      vertex -3.86545 -5.93175 0.4
      vertex -4.55568 8.11805 0.4
    endloop
  endfacet
  facet normal 0.514095 0.857733 0
    outer loop
      vertex -4.55568 -5.51805 0.4
      vertex -4.55568 -5.51805 2.3
      vertex -3.86545 -5.93175 0.4
    endloop
  endfacet
  facet normal 0.514095 0.857733 0
    outer loop
      vertex -4.55568 -5.51805 2.3
      vertex -3.86545 -5.93175 2.3
      vertex -3.86545 -5.93175 0.4
    endloop
  endfacet
  facet normal 0 0 -1
    outer loop
      vertex -4.55568 -5.51805 2.3
      vertex -3.86545 8.53175 2.3
      vertex -3.86545 -5.93175 2.3
    endloop
  endfacet
  facet normal 0 0 -1
    outer loop
      vertex -4.55568 -5.51805 2.3
      vertex -4.55568 8.11805 2.3
      vertex -3.86545 8.53175 2.3
    endloop
  endfacet
  facet normal 0 0 1
    outer loop
      vertex -4.55568 8.11805 0.4
      vertex -3.86545 -5.93175 0.4
      vertex -3.86545 8.53175 0.4
    endloop
  endfacet
  facet normal 0.514095 -0.857733 0
    outer loop
      vertex -4.55568 8.11805 0.4
      vertex -3.86545 8.53175 0.4
      vertex -3.86545 8.53175 2.3
    endloop
  endfacet
  facet normal 0.514095 -0.857733 0
    outer loop
      vertex -4.55568 8.11805 0.4
      vertex -3.86545 8.53175 2.3
      vertex -4.55568 8.11805 2.3
    endloop
  endfacet
  facet normal -0.453991 -0.891007 0
    outer loop
      vertex -4.95 -8.57365 0
      vertex -4.02669 -9.0441 0
      vertex -4.02669 -9.0441 3
    endloop
  endfacet
  facet normal -0.453991 -0.891007 0
    outer loop
      vertex -4.95 -8.57365 0
      vertex -4.02669 -9.0441 3
      vertex -4.95 -8.57365 3
    endloop
  endfacet
  facet normal 0 0 -1
    outer loop
      vertex -4.95 -8.57365 0
      vertex -4.02669 9.0441 0
      vertex -4.02669 -9.0441 0
    endloop
  endfacet
  facet normal 0 0 -1
    outer loop
      vertex -4.95 -8.57365 0
      vertex -4.95 8.57365 0
      vertex -4.02669 9.0441 0
    endloop
  endfacet
  facet normal 0 0 1
    outer loop
      vertex -4.95 -8.57365 3
      vertex -4.02669 -9.0441 3
      vertex -3.72052 1.2 3
    endloop
  endfacet
  facet normal -0.453991 0.891007 0
    outer loop
      vertex -4.95 8.57365 0
      vertex -4.95 8.57365 3
      vertex -4.02669 9.0441 0
    endloop
  endfacet
  facet normal 0 0 1
    outer loop
      vertex -4.95 8.57365 3
      vertex -3.72052 1.2 3
      vertex -4.02669 9.0441 3
    endloop
  endfacet
  facet normal -0.453991 0.891007 0
    outer loop
      vertex -4.95 8.57365 3
      vertex -4.02669 9.0441 3
      vertex -4.02669 9.0441 0
    endloop
  endfacet
  facet normal 0 0 1
    outer loop
      vertex -5.20202 -5.03868 0.4
      vertex -4.55568 -5.51805 0.4
      vertex -5.20202 7.63869 0.4
    endloop
  endfacet
  facet normal 0.595709 0.803201 0
    outer loop
      vertex -5.20202 -5.03868 0.4
      vertex -5.20202 -5.03868 2.3
      vertex -4.55568 -5.51805 0.4
    endloop
  endfacet
  facet normal 0.595709 0.803201 0
    outer loop
      vertex -5.20202 -5.03868 2.3
      vertex -4.55568 -5.51805 2.3
      vertex -4.55568 -5.51805 0.4
    endloop
  endfacet
  facet normal 0 0 -1
    outer loop
      vertex -5.20202 -5.03868 2.3
      vertex -4.55568 8.11805 2.3
      vertex -4.55568 -5.51805 2.3
    endloop
  endfacet
  facet normal 0 0 -1
    outer loop
      vertex -5.20202 -5.03868 2.3
      vertex -5.20202 7.63869 2.3
      vertex -4.55568 8.11805 2.3
    endloop
  endfacet
  facet normal 0 0 1
    outer loop
      vertex -5.20202 7.63869 0.4
      vertex -4.55568 -5.51805 0.4
      vertex -4.55568 8.11805 0.4
    endloop
  endfacet
  facet normal 0.595701 -0.803207 0
    outer loop
      vertex -5.20202 7.63869 0.4
      vertex -4.55568 8.11805 0.4
      vertex -4.55568 8.11805 2.3
    endloop
  endfacet
  facet normal 0.595701 -0.803207 0
    outer loop
      vertex -5.20202 7.63869 0.4
      vertex -4.55568 8.11805 2.3
      vertex -5.20202 7.63869 2.3
    endloop
  endfacet
  facet normal 0 0 1
    outer loop
      vertex -5.79827 -4.49827 0.4
      vertex -5.20202 -5.03868 0.4
      vertex -5.79827 7.09828 0.4
    endloop
  endfacet
  facet normal 0.671559 0.740951 0
    outer loop
      vertex -5.79827 -4.49827 0.4
      vertex -5.79827 -4.49827 2.3
      vertex -5.20202 -5.03868 0.4
    endloop
  endfacet
  facet normal 0.671559 0.740951 0
    outer loop
      vertex -5.79827 -4.49827 2.3
      vertex -5.20202 -5.03868 2.3
      vertex -5.20202 -5.03868 0.4
    endloop
  endfacet
  facet normal 0 0 -1
    outer loop
      vertex -5.79827 -4.49827 2.3
      vertex -5.20202 7.63869 2.3
      vertex -5.20202 -5.03868 2.3
    endloop
  endfacet
  facet normal 0 0 -1
    outer loop
      vertex -5.79827 -4.49827 2.3
      vertex -5.79827 7.09828 2.3
      vertex -5.20202 7.63869 2.3
    endloop
  endfacet
  facet normal 0 0 1
    outer loop
      vertex -5.79827 7.09828 0.4
      vertex -5.20202 -5.03868 0.4
      vertex -5.20202 7.63869 0.4
    endloop
  endfacet
  facet normal 0.671559 -0.740951 0
    outer loop
      vertex -5.79827 7.09828 0.4
      vertex -5.20202 7.63869 0.4
      vertex -5.20202 7.63869 2.3
    endloop
  endfacet
  facet normal 0.671559 -0.740951 0
    outer loop
      vertex -5.79827 7.09828 0.4
      vertex -5.20202 7.63869 2.3
      vertex -5.79827 7.09828 2.3
    endloop
  endfacet
  facet normal -0.544639 -0.838671 0
    outer loop
      vertex -5.81907 -8.00927 0
      vertex -4.95 -8.57365 0
      vertex -4.95 -8.57365 3
    endloop
  endfacet
  facet normal -0.544639 -0.838671 0
    outer loop
      vertex -5.81907 -8.00927 0
      vertex -4.95 -8.57365 3
      vertex -5.81907 -8.00927 3
    endloop
  endfacet
  facet normal 0 0 -1
    outer loop
      vertex -5.81907 -8.00927 0
      vertex -4.95 8.57365 0
      vertex -4.95 -8.57365 0
    endloop
  endfacet
  facet normal 0 0 -1
    outer loop
      vertex -5.81907 -8.00927 0
      vertex -5.81907 8.00927 0
      vertex -4.95 8.57365 0
    endloop
  endfacet
  facet normal 0 0 1
    outer loop
      vertex -5.81907 -8.00927 3
      vertex -4.95 -8.57365 3
      vertex -3.72052 1.2 3
    endloop
  endfacet
  facet normal -0.544639 0.838671 0
    outer loop
      vertex -5.81907 8.00927 0
      vertex -5.81907 8.00927 3
      vertex -4.95 8.57365 0
    endloop
  endfacet
  facet normal 0 0 1
    outer loop
      vertex -5.81907 8.00927 3
      vertex -3.72052 1.2 3
      vertex -4.95 8.57365 3
    endloop
  endfacet
  facet normal -0.544639 0.838671 0
    outer loop
      vertex -5.81907 8.00927 3
      vertex -4.95 8.57365 3
      vertex -4.95 8.57365 0
    endloop
  endfacet
  facet normal 0 0 1
    outer loop
      vertex -6.33869 -3.90202 0.4
      vertex -5.79827 -4.49827 0.4
      vertex -6.33869 6.50202 0.4
    endloop
  endfacet
  facet normal 0.740945 0.671566 0
    outer loop
      vertex -6.33869 -3.90202 0.4
      vertex -5.79827 -4.49827 2.3
      vertex -5.79827 -4.49827 0.4
    endloop
  endfacet
  facet normal 0.740945 0.671566 0
    outer loop
      vertex -6.33869 -3.90202 0.4
      vertex -6.33869 -3.90202 2.3
      vertex -5.79827 -4.49827 2.3
    endloop
  endfacet
  facet normal 0 0 -1
    outer loop
      vertex -6.33869 -3.90202 2.3
      vertex -5.79827 7.09828 2.3
      vertex -5.79827 -4.49827 2.3
    endloop
  endfacet
  facet normal 0 0 -1
    outer loop
      vertex -6.33869 -3.90202 2.3
      vertex -6.33869 6.50202 2.3
      vertex -5.79827 7.09828 2.3
    endloop
  endfacet
  facet normal 0 0 1
    outer loop
      vertex -6.33869 6.50202 0.4
      vertex -5.79827 -4.49827 0.4
      vertex -5.79827 7.09828 0.4
    endloop
  endfacet
  facet normal 0.74095 -0.67156 0
    outer loop
      vertex -6.33869 6.50202 0.4
      vertex -5.79827 7.09828 0.4
      vertex -6.33869 6.50202 2.3
    endloop
  endfacet
  facet normal 0.74095 -0.67156 0
    outer loop
      vertex -6.33869 6.50202 2.3
      vertex -5.79827 7.09828 0.4
      vertex -5.79827 7.09828 2.3
    endloop
  endfacet
  facet normal -0.629323 -0.777144 0
    outer loop
      vertex -6.62439 -7.35713 0
      vertex -5.81907 -8.00927 0
      vertex -5.81907 -8.00927 3
    endloop
  endfacet
  facet normal -0.629323 -0.777144 0
    outer loop
      vertex -6.62439 -7.35713 0
      vertex -5.81907 -8.00927 3
      vertex -6.62439 -7.35713 3
    endloop
  endfacet
  facet normal 0 0 -1
    outer loop
      vertex -6.62439 -7.35713 0
      vertex -5.81907 8.00927 0
      vertex -5.81907 -8.00927 0
    endloop
  endfacet
  facet normal 0 0 -1
    outer loop
      vertex -6.62439 -7.35713 0
      vertex -6.62439 7.35713 0
      vertex -5.81907 8.00927 0
    endloop
  endfacet
  facet normal 0 0 1
    outer loop
      vertex -6.62439 -7.35713 3
      vertex -5.81907 -8.00927 3
      vertex -3.72052 1.2 3
    endloop
  endfacet
  facet normal -0.629323 0.777144 0
    outer loop
      vertex -6.62439 7.35713 0
      vertex -6.62439 7.35713 3
      vertex -5.81907 8.00927 0
    endloop
  endfacet
  facet normal 0 0 1
    outer loop
      vertex -6.62439 7.35713 3
      vertex -3.72052 1.2 3
      vertex -5.81907 8.00927 3
    endloop
  endfacet
  facet normal -0.629323 0.777144 0
    outer loop
      vertex -6.62439 7.35713 3
      vertex -5.81907 8.00927 3
      vertex -5.81907 8.00927 0
    endloop
  endfacet
  facet normal 0 0 1
    outer loop
      vertex -6.81805 -3.25568 0.4
      vertex -6.33869 -3.90202 0.4
      vertex -6.81805 5.85568 0.4
    endloop
  endfacet
  facet normal 0.803207 0.595701 0
    outer loop
      vertex -6.81805 -3.25568 0.4
      vertex -6.33869 -3.90202 2.3
      vertex -6.33869 -3.90202 0.4
    endloop
  endfacet
  facet normal 0.803207 0.595701 0
    outer loop
      vertex -6.81805 -3.25568 0.4
      vertex -6.81805 -3.25568 2.3
      vertex -6.33869 -3.90202 2.3
    endloop
  endfacet
  facet normal 0 0 -1
    outer loop
      vertex -6.81805 -3.25568 2.3
      vertex -6.33869 6.50202 2.3
      vertex -6.33869 -3.90202 2.3
    endloop
  endfacet
  facet normal 0 0 -1
    outer loop
      vertex -6.81805 -3.25568 2.3
      vertex -6.81805 5.85568 2.3
      vertex -6.33869 6.50202 2.3
    endloop
  endfacet
  facet normal 0 0 1
    outer loop
      vertex -6.81805 5.85568 0.4
      vertex -6.33869 -3.90202 0.4
      vertex -6.33869 6.50202 0.4
    endloop
  endfacet
  facet normal 0.803207 -0.595701 0
    outer loop
      vertex -6.81805 5.85568 0.4
      vertex -6.33869 6.50202 0.4
      vertex -6.81805 5.85568 2.3
    endloop
  endfacet
  facet normal 0.803207 -0.595701 0
    outer loop
      vertex -6.81805 5.85568 2.3
      vertex -6.33869 6.50202 0.4
      vertex -6.33869 6.50202 2.3
    endloop
  endfacet
  facet normal 0 0 1
    outer loop
      vertex -7.23175 -2.56545 0.4
      vertex -6.81805 -3.25568 0.4
      vertex -7.23175 5.16545 0.4
    endloop
  endfacet
  facet normal 0.857733 0.514095 0
    outer loop
      vertex -7.23175 -2.56545 0.4
      vertex -6.81805 -3.25568 2.3
      vertex -6.81805 -3.25568 0.4
    endloop
  endfacet
  facet normal 0.857733 0.514095 0
    outer loop
      vertex -7.23175 -2.56545 0.4
      vertex -7.23175 -2.56545 2.3
      vertex -6.81805 -3.25568 2.3
    endloop
  endfacet
  facet normal 0 0 -1
    outer loop
      vertex -7.23175 -2.56545 2.3
      vertex -6.81805 5.85568 2.3
      vertex -6.81805 -3.25568 2.3
    endloop
  endfacet
  facet normal 0 0 -1
    outer loop
      vertex -7.23175 -2.56545 2.3
      vertex -7.23175 5.16545 2.3
      vertex -6.81805 5.85568 2.3
    endloop
  endfacet
  facet normal 0 0 1
    outer loop
      vertex -7.23175 5.16545 0.4
      vertex -6.81805 -3.25568 0.4
      vertex -6.81805 5.85568 0.4
    endloop
  endfacet
  facet normal 0.857733 -0.514095 0
    outer loop
      vertex -7.23175 5.16545 0.4
      vertex -6.81805 5.85568 0.4
      vertex -7.23175 5.16545 2.3
    endloop
  endfacet
  facet normal 0.857733 -0.514095 0
    outer loop
      vertex -7.23175 5.16545 2.3
      vertex -6.81805 5.85568 0.4
      vertex -6.81805 5.85568 2.3
    endloop
  endfacet
  facet normal -0.707107 -0.707107 0
    outer loop
      vertex -7.35713 -6.62439 0
      vertex -6.62439 -7.35713 0
      vertex -7.35713 -6.62439 3
    endloop
  endfacet
  facet normal 0 0 -1
    outer loop
      vertex -7.35713 -6.62439 0
      vertex -6.62439 7.35713 0
      vertex -6.62439 -7.35713 0
    endloop
  endfacet
  facet normal 0 0 -1
    outer loop
      vertex -7.35713 -6.62439 0
      vertex -7.35713 6.62439 0
      vertex -6.62439 7.35713 0
    endloop
  endfacet
  facet normal -0.707107 -0.707107 0
    outer loop
      vertex -7.35713 -6.62439 3
      vertex -6.62439 -7.35713 0
      vertex -6.62439 -7.35713 3
    endloop
  endfacet
  facet normal 0 0 1
    outer loop
      vertex -7.35713 -6.62439 3
      vertex -6.62439 -7.35713 3
      vertex -3.72052 1.2 3
    endloop
  endfacet
  facet normal -0.707107 0.707107 0
    outer loop
      vertex -7.35713 6.62439 0
      vertex -6.62439 7.35713 3
      vertex -6.62439 7.35713 0
    endloop
  endfacet
  facet normal -0.707107 0.707107 0
    outer loop
      vertex -7.35713 6.62439 0
      vertex -7.35713 6.62439 3
      vertex -6.62439 7.35713 3
    endloop
  endfacet
  facet normal 0 0 1
    outer loop
      vertex -7.35713 6.62439 3
      vertex -3.72052 1.2 3
      vertex -6.62439 7.35713 3
    endloop
  endfacet
  facet normal 0 0 1
    outer loop
      vertex -7.57581 -1.838 0.4
      vertex -7.23175 -2.56545 0.4
      vertex -7.57581 4.438 0.4
    endloop
  endfacet
  facet normal 0.903988 0.427557 0
    outer loop
      vertex -7.57581 -1.838 0.4
      vertex -7.23175 -2.56545 2.3
      vertex -7.23175 -2.56545 0.4
    endloop
  endfacet
  facet normal 0.903988 0.427557 0
    outer loop
      vertex -7.57581 -1.838 0.4
      vertex -7.57581 -1.838 2.3
      vertex -7.23175 -2.56545 2.3
    endloop
  endfacet
  facet normal 0 0 -1
    outer loop
      vertex -7.57581 -1.838 2.3
      vertex -7.23175 5.16545 2.3
      vertex -7.23175 -2.56545 2.3
    endloop
  endfacet
  facet normal 0 0 -1
    outer loop
      vertex -7.57581 -1.838 2.3
      vertex -7.57581 4.438 2.3
      vertex -7.23175 5.16545 2.3
    endloop
  endfacet
  facet normal 0 0 1
    outer loop
      vertex -7.57581 4.438 0.4
      vertex -7.23175 -2.56545 0.4
      vertex -7.23175 5.16545 0.4
    endloop
  endfacet
  facet normal 0.903988 -0.427557 0
    outer loop
      vertex -7.57581 4.438 0.4
      vertex -7.23175 5.16545 0.4
      vertex -7.57581 4.438 2.3
    endloop
  endfacet
  facet normal 0.903988 -0.427557 0
    outer loop
      vertex -7.57581 4.438 2.3
      vertex -7.23175 5.16545 0.4
      vertex -7.23175 5.16545 2.3
    endloop
  endfacet
  facet normal 0 0 1
    outer loop
      vertex -7.84691 -1.08033 0.4
      vertex -7.57581 -1.838 0.4
      vertex -7.84691 3.68033 0.4
    endloop
  endfacet
  facet normal 0.941544 0.336891 0
    outer loop
      vertex -7.84691 -1.08033 0.4
      vertex -7.57581 -1.838 2.3
      vertex -7.57581 -1.838 0.4
    endloop
  endfacet
  facet normal 0.941544 0.336891 0
    outer loop
      vertex -7.84691 -1.08033 0.4
      vertex -7.84691 -1.08033 2.3
      vertex -7.57581 -1.838 2.3
    endloop
  endfacet
  facet normal 0 0 -1
    outer loop
      vertex -7.84691 -1.08033 2.3
      vertex -7.57581 4.438 2.3
      vertex -7.57581 -1.838 2.3
    endloop
  endfacet
  facet normal 0 0 -1
    outer loop
      vertex -7.84691 -1.08033 2.3
      vertex -7.84691 3.68033 2.3
      vertex -7.57581 4.438 2.3
    endloop
  endfacet
  facet normal 0 0 1
    outer loop
      vertex -7.84691 3.68033 0.4
      vertex -7.57581 -1.838 0.4
      vertex -7.57581 4.438 0.4
    endloop
  endfacet
  facet normal 0.941544 -0.336891 0
    outer loop
      vertex -7.84691 3.68033 0.4
      vertex -7.57581 4.438 0.4
      vertex -7.84691 3.68033 2.3
    endloop
  endfacet
  facet normal 0.941544 -0.336891 0
    outer loop
      vertex -7.84691 3.68033 2.3
      vertex -7.57581 4.438 0.4
      vertex -7.57581 4.438 2.3
    endloop
  endfacet
  facet normal -0.777144 -0.629323 0
    outer loop
      vertex -8.00927 -5.81907 0
      vertex -7.35713 -6.62439 0
      vertex -8.00927 -5.81907 3
    endloop
  endfacet
  facet normal 0 0 -1
    outer loop
      vertex -8.00927 -5.81907 0
      vertex -7.35713 6.62439 0
      vertex -7.35713 -6.62439 0
    endloop
  endfacet
  facet normal 0 0 -1
    outer loop
      vertex -8.00927 -5.81907 0
      vertex -8.00927 5.81907 0
      vertex -7.35713 6.62439 0
    endloop
  endfacet
  facet normal -0.777144 -0.629323 0
    outer loop
      vertex -8.00927 -5.81907 3
      vertex -7.35713 -6.62439 0
      vertex -7.35713 -6.62439 3
    endloop
  endfacet
  facet normal 0 0 1
    outer loop
      vertex -8.00927 -5.81907 3
      vertex -7.35713 -6.62439 3
      vertex -3.72052 1.2 3
    endloop
  endfacet
  facet normal -0.777144 0.629323 0
    outer loop
      vertex -8.00927 5.81907 0
      vertex -7.35713 6.62439 3
      vertex -7.35713 6.62439 0
    endloop
  endfacet
  facet normal -0.777144 0.629323 0
    outer loop
      vertex -8.00927 5.81907 0
      vertex -8.00927 5.81907 3
      vertex -7.35713 6.62439 3
    endloop
  endfacet
  facet normal 0 0 1
    outer loop
      vertex -8.00927 5.81907 3
      vertex -3.72052 1.2 3
      vertex -7.35713 6.62439 3
    endloop
  endfacet
  facet normal 0 0 1
    outer loop
      vertex -8.04244 -0.29974 0.4
      vertex -7.84691 -1.08033 0.4
      vertex -8.04244 2.89974 0.4
    endloop
  endfacet
  facet normal 0.970031 0.242983 0
    outer loop
      vertex -8.04244 -0.29974 0.4
      vertex -7.84691 -1.08033 2.3
      vertex -7.84691 -1.08033 0.4
    endloop
  endfacet
  facet normal 0.970031 0.242983 0
    outer loop
      vertex -8.04244 -0.29974 0.4
      vertex -8.04244 -0.29974 2.3
      vertex -7.84691 -1.08033 2.3
    endloop
  endfacet
  facet normal 0 0 -1
    outer loop
      vertex -8.04244 -0.29974 2.3
      vertex -7.84691 3.68033 2.3
      vertex -7.84691 -1.08033 2.3
    endloop
  endfacet
  facet normal 0 0 -1
    outer loop
      vertex -8.04244 -0.29974 2.3
      vertex -8.04244 2.89974 2.3
      vertex -7.84691 3.68033 2.3
    endloop
  endfacet
  facet normal 0 0 1
    outer loop
      vertex -8.04244 2.89974 0.4
      vertex -7.84691 -1.08033 0.4
      vertex -7.84691 3.68033 0.4
    endloop
  endfacet
  facet normal 0.970031 -0.242983 0
    outer loop
      vertex -8.04244 2.89974 0.4
      vertex -7.84691 3.68033 0.4
      vertex -8.04244 2.89974 2.3
    endloop
  endfacet
  facet normal 0.970031 -0.242983 0
    outer loop
      vertex -8.04244 2.89974 2.3
      vertex -7.84691 3.68033 0.4
      vertex -7.84691 3.68033 2.3
    endloop
  endfacet
  facet normal 0 0 1
    outer loop
      vertex -8.16051 0.496259 0.4
      vertex -8.04244 -0.29974 0.4
      vertex -8.16051 2.10374 0.4
    endloop
  endfacet
  facet normal 0.989177 0.146724 0
    outer loop
      vertex -8.16051 0.496259 0.4
      vertex -8.04244 -0.29974 2.3
      vertex -8.04244 -0.29974 0.4
    endloop
  endfacet
  facet normal 0.989177 0.146724 0
    outer loop
      vertex -8.16051 0.496259 0.4
      vertex -8.16051 0.496259 2.3
      vertex -8.04244 -0.29974 2.3
    endloop
  endfacet
  facet normal 0 0 -1
    outer loop
      vertex -8.16051 0.496259 2.3
      vertex -8.04244 2.89974 2.3
      vertex -8.04244 -0.29974 2.3
    endloop
  endfacet
  facet normal 0 0 -1
    outer loop
      vertex -8.16051 0.496259 2.3
      vertex -8.16051 2.10374 2.3
      vertex -8.04244 2.89974 2.3
    endloop
  endfacet
  facet normal 0 0 1
    outer loop
      vertex -8.16051 2.10374 0.4
      vertex -8.04244 -0.29974 0.4
      vertex -8.04244 2.89974 0.4
    endloop
  endfacet
  facet normal 0.989177 -0.146724 0
    outer loop
      vertex -8.16051 2.10374 0.4
      vertex -8.04244 2.89974 0.4
      vertex -8.16051 2.10374 2.3
    endloop
  endfacet
  facet normal 0.989177 -0.146724 0
    outer loop
      vertex -8.16051 2.10374 2.3
      vertex -8.04244 2.89974 0.4
      vertex -8.04244 2.89974 2.3
    endloop
  endfacet
  facet normal 0 0 1
    outer loop
      vertex -8.2 1.3 0.4
      vertex -8.16051 0.496259 0.4
      vertex -8.16051 2.10374 0.4
    endloop
  endfacet
  facet normal 0.998795 0.0490735 0
    outer loop
      vertex -8.2 1.3 0.4
      vertex -8.16051 0.496259 2.3
      vertex -8.16051 0.496259 0.4
    endloop
  endfacet
  facet normal 0.998795 -0.0490736 0
    outer loop
      vertex -8.2 1.3 0.4
      vertex -8.16051 2.10374 0.4
      vertex -8.2 1.3 2.3
    endloop
  endfacet
  facet normal 0.998795 0.0490735 0
    outer loop
      vertex -8.2 1.3 0.4
      vertex -8.2 1.3 2.3
      vertex -8.16051 0.496259 2.3
    endloop
  endfacet
  facet normal 0.998795 -0.0490736 0
    outer loop
      vertex -8.2 1.3 2.3
      vertex -8.16051 2.10374 0.4
      vertex -8.16051 2.10374 2.3
    endloop
  endfacet
  facet normal 0 0 -1
    outer loop
      vertex -8.2 1.3 2.3
      vertex -8.16051 2.10374 2.3
      vertex -8.16051 0.496259 2.3
    endloop
  endfacet
  facet normal -0.838671 -0.544639 0
    outer loop
      vertex -8.57365 -4.95 0
      vertex -8.00927 -5.81907 0
      vertex -8.57365 -4.95 3
    endloop
  endfacet
  facet normal 0 0 -1
    outer loop
      vertex -8.57365 -4.95 0
      vertex -8.00927 5.81907 0
      vertex -8.00927 -5.81907 0
    endloop
  endfacet
  facet normal 0 0 -1
    outer loop
      vertex -8.57365 -4.95 0
      vertex -8.57365 4.95 0
      vertex -8.00927 5.81907 0
    endloop
  endfacet
  facet normal -0.838671 -0.544639 0
    outer loop
      vertex -8.57365 -4.95 3
      vertex -8.00927 -5.81907 0
      vertex -8.00927 -5.81907 3
    endloop
  endfacet
  facet normal 0 0 1
    outer loop
      vertex -8.57365 -4.95 3
      vertex -8.00927 -5.81907 3
      vertex -3.72052 1.2 3
    endloop
  endfacet
  facet normal -0.838671 0.544639 0
    outer loop
      vertex -8.57365 4.95 0
      vertex -8.00927 5.81907 3
      vertex -8.00927 5.81907 0
    endloop
  endfacet
  facet normal -0.838671 0.544639 0
    outer loop
      vertex -8.57365 4.95 0
      vertex -8.57365 4.95 3
      vertex -8.00927 5.81907 3
    endloop
  endfacet
  facet normal 0 0 1
    outer loop
      vertex -8.57365 4.95 3
      vertex -3.72052 1.2 3
      vertex -8.00927 5.81907 3
    endloop
  endfacet
  facet normal -0.891007 -0.453991 0
    outer loop
      vertex -9.0441 -4.02669 0
      vertex -8.57365 -4.95 0
      vertex -9.0441 -4.02669 3
    endloop
  endfacet
  facet normal 0 0 -1
    outer loop
      vertex -9.0441 -4.02669 0
      vertex -8.57365 4.95 0
      vertex -8.57365 -4.95 0
    endloop
  endfacet
  facet normal 0 0 -1
    outer loop
      vertex -9.0441 -4.02669 0
      vertex -9.0441 4.02669 0
      vertex -8.57365 4.95 0
    endloop
  endfacet
  facet normal -0.891007 -0.453991 0
    outer loop
      vertex -9.0441 -4.02669 3
      vertex -8.57365 -4.95 0
      vertex -8.57365 -4.95 3
    endloop
  endfacet
  facet normal 0 0 1
    outer loop
      vertex -9.0441 -4.02669 3
      vertex -8.57365 -4.95 3
      vertex -3.72052 1.2 3
    endloop
  endfacet
  facet normal -0.891007 0.453991 0
    outer loop
      vertex -9.0441 4.02669 0
      vertex -8.57365 4.95 3
      vertex -8.57365 4.95 0
    endloop
  endfacet
  facet normal -0.891007 0.453991 0
    outer loop
      vertex -9.0441 4.02669 0
      vertex -9.0441 4.02669 3
      vertex -8.57365 4.95 3
    endloop
  endfacet
  facet normal 0 0 1
    outer loop
      vertex -9.0441 4.02669 3
      vertex -3.72052 1.2 3
      vertex -8.57365 4.95 3
    endloop
  endfacet
  facet normal -0.93358 -0.35837 0
    outer loop
      vertex -9.41546 -3.05927 0
      vertex -9.0441 -4.02669 0
      vertex -9.41546 -3.05927 3
    endloop
  endfacet
  facet normal 0 0 -1
    outer loop
      vertex -9.41546 -3.05927 0
      vertex -9.0441 4.02669 0
      vertex -9.0441 -4.02669 0
    endloop
  endfacet
  facet normal 0 0 -1
    outer loop
      vertex -9.41546 -3.05927 0
      vertex -9.41546 3.05927 0
      vertex -9.0441 4.02669 0
    endloop
  endfacet
  facet normal -0.93358 -0.35837 0
    outer loop
      vertex -9.41546 -3.05927 3
      vertex -9.0441 -4.02669 0
      vertex -9.0441 -4.02669 3
    endloop
  endfacet
  facet normal 0 0 1
    outer loop
      vertex -9.41546 -3.05927 3
      vertex -9.0441 -4.02669 3
      vertex -3.72052 1.2 3
    endloop
  endfacet
  facet normal -0.93358 0.35837 0
    outer loop
      vertex -9.41546 3.05927 0
      vertex -9.0441 4.02669 3
      vertex -9.0441 4.02669 0
    endloop
  endfacet
  facet normal -0.93358 0.35837 0
    outer loop
      vertex -9.41546 3.05927 0
      vertex -9.41546 3.05927 3
      vertex -9.0441 4.02669 3
    endloop
  endfacet
  facet normal 0 0 1
    outer loop
      vertex -9.41546 3.05927 3
      vertex -3.72052 1.2 3
      vertex -9.0441 4.02669 3
    endloop
  endfacet
  facet normal -0.965927 -0.258816 0
    outer loop
      vertex -9.68366 -2.05832 0
      vertex -9.41546 -3.05927 0
      vertex -9.68366 -2.05832 3
    endloop
  endfacet
  facet normal 0 0 -1
    outer loop
      vertex -9.68366 -2.05832 0
      vertex -9.41546 3.05927 0
      vertex -9.41546 -3.05927 0
    endloop
  endfacet
  facet normal 0 0 -1
    outer loop
      vertex -9.68366 -2.05832 0
      vertex -9.68366 2.05832 0
      vertex -9.41546 3.05927 0
    endloop
  endfacet
  facet normal -0.965927 -0.258816 0
    outer loop
      vertex -9.68366 -2.05832 3
      vertex -9.41546 -3.05927 0
      vertex -9.41546 -3.05927 3
    endloop
  endfacet
  facet normal 0 0 1
    outer loop
      vertex -9.68366 -2.05832 3
      vertex -9.41546 -3.05927 3
      vertex -3.72052 1.2 3
    endloop
  endfacet
  facet normal -0.965927 0.258816 0
    outer loop
      vertex -9.68366 2.05832 0
      vertex -9.41546 3.05927 3
      vertex -9.41546 3.05927 0
    endloop
  endfacet
  facet normal -0.965927 0.258816 0
    outer loop
      vertex -9.68366 2.05832 0
      vertex -9.68366 2.05832 3
      vertex -9.41546 3.05927 3
    endloop
  endfacet
  facet normal 0 0 1
    outer loop
      vertex -9.68366 2.05832 3
      vertex -3.72052 1.2 3
      vertex -9.41546 3.05927 3
    endloop
  endfacet
  facet normal -0.987688 -0.156439 0
    outer loop
      vertex -9.84577 -1.03483 0
      vertex -9.68366 -2.05832 0
      vertex -9.84577 -1.03483 3
    endloop
  endfacet
  facet normal 0 0 -1
    outer loop
      vertex -9.84577 -1.03483 0
      vertex -9.68366 2.05832 0
      vertex -9.68366 -2.05832 0
    endloop
  endfacet
  facet normal 0 0 -1
    outer loop
      vertex -9.84577 -1.03483 0
      vertex -9.84577 1.03483 0
      vertex -9.68366 2.05832 0
    endloop
  endfacet
  facet normal -0.987688 -0.156439 0
    outer loop
      vertex -9.84577 -1.03483 3
      vertex -9.68366 -2.05832 0
      vertex -9.68366 -2.05832 3
    endloop
  endfacet
  facet normal 0 0 1
    outer loop
      vertex -9.84577 -1.03483 3
      vertex -9.68366 -2.05832 3
      vertex -3.72052 1.2 3
    endloop
  endfacet
  facet normal -0.987688 0.156439 0
    outer loop
      vertex -9.84577 1.03483 0
      vertex -9.68366 2.05832 3
      vertex -9.68366 2.05832 0
    endloop
  endfacet
  facet normal -0.987688 0.156439 0
    outer loop
      vertex -9.84577 1.03483 0
      vertex -9.84577 1.03483 3
      vertex -9.68366 2.05832 3
    endloop
  endfacet
  facet normal 0 0 1
    outer loop
      vertex -9.84577 1.03483 3
      vertex -3.72052 1.2 3
      vertex -9.68366 2.05832 3
    endloop
  endfacet
  facet normal -0.99863 -0.0523329 0
    outer loop
      vertex -9.9 0 0
      vertex -9.84577 -1.03483 0
      vertex -9.9 0 3
    endloop
  endfacet
  facet normal 0 0 -1
    outer loop
      vertex -9.9 0 0
      vertex -9.84577 1.03483 0
      vertex -9.84577 -1.03483 0
    endloop
  endfacet
  facet normal -0.99863 0.0523329 0
    outer loop
      vertex -9.9 0 0
      vertex -9.84577 1.03483 3
      vertex -9.84577 1.03483 0
    endloop
  endfacet
  facet normal -0.99863 0.0523329 0
    outer loop
      vertex -9.9 0 0
      vertex -9.9 0 3
      vertex -9.84577 1.03483 3
    endloop
  endfacet
  facet normal 0 0 1
    outer loop
      vertex -9.9 0 3
      vertex -3.72052 1.2 3
      vertex -9.84577 1.03483 3
    endloop
  endfacet
  facet normal -0.99863 -0.0523329 0
    outer loop
      vertex -9.9 0 3
      vertex -9.84577 -1.03483 0
      vertex -9.84577 -1.03483 3
    endloop
  endfacet
  facet normal 0 0 1
    outer loop
      vertex -9.9 0 3
      vertex -9.84577 -1.03483 3
      vertex -3.72052 1.2 3
    endloop
  endfacet
  facet normal -0.0490735 0.998795 0
    outer loop
      vertex 0 -6.9 0.4
      vertex 0 -6.9 2.3
      vertex 0.803741 -6.86051 0.4
    endloop
  endfacet
  facet normal 0 0 1
    outer loop
      vertex 0 -6.9 0.4
      vertex 0.803741 -6.86051 0.4
      vertex 0 9.5 0.4
    endloop
  endfacet
  facet normal 0 0 -1
    outer loop
      vertex 0 -6.9 2.3
      vertex 0 9.5 2.3
      vertex 0.803741 9.46051 2.3
    endloop
  endfacet
  facet normal -0.0490735 0.998795 0
    outer loop
      vertex 0 -6.9 2.3
      vertex 0.803741 -6.86051 2.3
      vertex 0.803741 -6.86051 0.4
    endloop
  endfacet
  facet normal 0 0 -1
    outer loop
      vertex 0 -6.9 2.3
      vertex 0.803741 9.46051 2.3
      vertex 0.803741 -6.86051 2.3
    endloop
  endfacet
  facet normal 0 0 -1
    outer loop
      vertex 0 -9.9 0
      vertex 0 9.9 0
      vertex 1.03483 9.84577 0
    endloop
  endfacet
  facet normal 0.0523329 -0.99863 0
    outer loop
      vertex 0 -9.9 0
      vertex 1.03483 -9.84577 0
      vertex 1.03483 -9.84577 3
    endloop
  endfacet
  facet normal 0.0523329 -0.99863 0
    outer loop
      vertex 0 -9.9 0
      vertex 1.03483 -9.84577 3
      vertex 0 -9.9 3
    endloop
  endfacet
  facet normal 0 0 -1
    outer loop
      vertex 0 -9.9 0
      vertex 1.03483 9.84577 0
      vertex 1.03483 -9.84577 0
    endloop
  endfacet
  facet normal 0 0 1
    outer loop
      vertex 0 -9.9 3
      vertex 1.03483 -9.84577 3
      vertex 3.98299 1.2 3
    endloop
  endfacet
  facet normal 0 0 1
    outer loop
      vertex 0 9.5 0.4
      vertex 0.803741 -6.86051 0.4
      vertex 0.803741 9.46051 0.4
    endloop
  endfacet
  facet normal -0.0490735 -0.998795 0
    outer loop
      vertex 0 9.5 0.4
      vertex 0.803741 9.46051 0.4
      vertex 0.803741 9.46051 2.3
    endloop
  endfacet
  facet normal -0.0490735 -0.998795 0
    outer loop
      vertex 0 9.5 0.4
      vertex 0.803741 9.46051 2.3
      vertex 0 9.5 2.3
    endloop
  endfacet
  facet normal 0.0523329 0.99863 0
    outer loop
      vertex 0 9.9 0
      vertex 0 9.9 3
      vertex 1.03483 9.84577 0
    endloop
  endfacet
  facet normal 0 0 1
    outer loop
      vertex 0 9.9 3
      vertex 0.131226 8.89807 3
      vertex 1.03483 9.84577 3
    endloop
  endfacet
  facet normal 0.0523329 0.99863 0
    outer loop
      vertex 0 9.9 3
      vertex 1.03483 9.84577 3
      vertex 1.03483 9.84577 0
    endloop
  endfacet
  facet normal -0.8943 -0.447467 0
    outer loop
      vertex 0.131226 8.89807 2.6
      vertex 3.98299 1.2 2.6
      vertex 0.131226 8.89807 3
    endloop
  endfacet
  facet normal 0 0 1
    outer loop
      vertex 0.131226 8.89807 3
      vertex 2.05832 9.68366 3
      vertex 1.03483 9.84577 3
    endloop
  endfacet
  facet normal 0 0 1
    outer loop
      vertex 0.131226 8.89807 3
      vertex 3.05927 9.41546 3
      vertex 2.05832 9.68366 3
    endloop
  endfacet
  facet normal -0.8943 -0.447467 0
    outer loop
      vertex 0.131226 8.89807 3
      vertex 3.98299 1.2 2.6
      vertex 3.98299 1.2 3
    endloop
  endfacet
  facet normal 0 0 1
    outer loop
      vertex 0.131226 8.89807 3
      vertex 3.98299 1.2 3
      vertex 4.02669 9.0441 3
    endloop
  endfacet
  facet normal 0 0 1
    outer loop
      vertex 0.131226 8.89807 3
      vertex 4.02669 9.0441 3
      vertex 3.05927 9.41546 3
    endloop
  endfacet
  facet normal -0.146724 0.989177 0
    outer loop
      vertex 0.803741 -6.86051 0.4
      vertex 0.803741 -6.86051 2.3
      vertex 1.59974 -6.74244 0.4
    endloop
  endfacet
  facet normal 0 0 1
    outer loop
      vertex 0.803741 -6.86051 0.4
      vertex 1.59974 -6.74244 0.4
      vertex 0.803741 9.46051 0.4
    endloop
  endfacet
  facet normal 0 0 -1
    outer loop
      vertex 0.803741 -6.86051 2.3
      vertex 0.803741 9.46051 2.3
      vertex 1.59974 9.34244 2.3
    endloop
  endfacet
  facet normal -0.146724 0.989177 0
    outer loop
      vertex 0.803741 -6.86051 2.3
      vertex 1.59974 -6.74244 2.3
      vertex 1.59974 -6.74244 0.4
    endloop
  endfacet
  facet normal 0 0 -1
    outer loop
      vertex 0.803741 -6.86051 2.3
      vertex 1.59974 9.34244 2.3
      vertex 1.59974 -6.74244 2.3
    endloop
  endfacet
  facet normal 0 0 1
    outer loop
      vertex 0.803741 9.46051 0.4
      vertex 1.59974 -6.74244 0.4
      vertex 1.59974 9.34244 0.4
    endloop
  endfacet
  facet normal -0.146724 -0.989177 0
    outer loop
      vertex 0.803741 9.46051 0.4
      vertex 1.59974 9.34244 0.4
      vertex 1.59974 9.34244 2.3
    endloop
  endfacet
  facet normal -0.146724 -0.989177 0
    outer loop
      vertex 0.803741 9.46051 0.4
      vertex 1.59974 9.34244 2.3
      vertex 0.803741 9.46051 2.3
    endloop
  endfacet
  facet normal 0 0 -1
    outer loop
      vertex 1.03483 -9.84577 0
      vertex 1.03483 9.84577 0
      vertex 2.05832 9.68366 0
    endloop
  endfacet
  facet normal 0.156439 -0.987688 0
    outer loop
      vertex 1.03483 -9.84577 0
      vertex 2.05832 -9.68366 0
      vertex 2.05832 -9.68366 3
    endloop
  endfacet
  facet normal 0.156439 -0.987688 0
    outer loop
      vertex 1.03483 -9.84577 0
      vertex 2.05832 -9.68366 3
      vertex 1.03483 -9.84577 3
    endloop
  endfacet
  facet normal 0 0 -1
    outer loop
      vertex 1.03483 -9.84577 0
      vertex 2.05832 9.68366 0
      vertex 2.05832 -9.68366 0
    endloop
  endfacet
  facet normal 0 0 1
    outer loop
      vertex 1.03483 -9.84577 3
      vertex 2.05832 -9.68366 3
      vertex 3.98299 1.2 3
    endloop
  endfacet
  facet normal 0.156439 0.987688 0
    outer loop
      vertex 1.03483 9.84577 0
      vertex 1.03483 9.84577 3
      vertex 2.05832 9.68366 0
    endloop
  endfacet
  facet normal 0.156439 0.987688 0
    outer loop
      vertex 1.03483 9.84577 3
      vertex 2.05832 9.68366 3
      vertex 2.05832 9.68366 0
    endloop
  endfacet
  facet normal -0.242983 0.970031 0
    outer loop
      vertex 1.59974 -6.74244 0.4
      vertex 1.59974 -6.74244 2.3
      vertex 2.38033 -6.54691 0.4
    endloop
  endfacet
  facet normal 0 0 1
    outer loop
      vertex 1.59974 -6.74244 0.4
      vertex 2.38033 -6.54691 0.4
      vertex 1.59974 9.34244 0.4
    endloop
  endfacet
  facet normal 0 0 -1
    outer loop
      vertex 1.59974 -6.74244 2.3
      vertex 1.59974 9.34244 2.3
      vertex 2.38033 9.14691 2.3
    endloop
  endfacet
  facet normal -0.242983 0.970031 0
    outer loop
      vertex 1.59974 -6.74244 2.3
      vertex 2.38033 -6.54691 2.3
      vertex 2.38033 -6.54691 0.4
    endloop
  endfacet
  facet normal 0 0 -1
    outer loop
      vertex 1.59974 -6.74244 2.3
      vertex 2.38033 9.14691 2.3
      vertex 2.38033 -6.54691 2.3
    endloop
  endfacet
  facet normal 0 0 1
    outer loop
      vertex 1.59974 9.34244 0.4
      vertex 2.38033 -6.54691 0.4
      vertex 2.38033 9.14691 0.4
    endloop
  endfacet
  facet normal -0.242983 -0.970031 0
    outer loop
      vertex 1.59974 9.34244 0.4
      vertex 2.38033 9.14691 0.4
      vertex 2.38033 9.14691 2.3
    endloop
  endfacet
  facet normal -0.242983 -0.970031 0
    outer loop
      vertex 1.59974 9.34244 0.4
      vertex 2.38033 9.14691 2.3
      vertex 1.59974 9.34244 2.3
    endloop
  endfacet
  facet normal 0 0 -1
    outer loop
      vertex 2.05832 -9.68366 0
      vertex 2.05832 9.68366 0
      vertex 3.05927 9.41546 0
    endloop
  endfacet
  facet normal 0.258816 -0.965927 0
    outer loop
      vertex 2.05832 -9.68366 0
      vertex 3.05927 -9.41546 0
      vertex 3.05927 -9.41546 3
    endloop
  endfacet
  facet normal 0.258816 -0.965927 0
    outer loop
      vertex 2.05832 -9.68366 0
      vertex 3.05927 -9.41546 3
      vertex 2.05832 -9.68366 3
    endloop
  endfacet
  facet normal 0 0 -1
    outer loop
      vertex 2.05832 -9.68366 0
      vertex 3.05927 9.41546 0
      vertex 3.05927 -9.41546 0
    endloop
  endfacet
  facet normal 0 0 1
    outer loop
      vertex 2.05832 -9.68366 3
      vertex 3.05927 -9.41546 3
      vertex 3.98299 1.2 3
    endloop
  endfacet
  facet normal 0.258816 0.965927 0
    outer loop
      vertex 2.05832 9.68366 0
      vertex 2.05832 9.68366 3
      vertex 3.05927 9.41546 0
    endloop
  endfacet
  facet normal 0.258816 0.965927 0
    outer loop
      vertex 2.05832 9.68366 3
      vertex 3.05927 9.41546 3
      vertex 3.05927 9.41546 0
    endloop
  endfacet
  facet normal -0.336891 0.941544 0
    outer loop
      vertex 2.38033 -6.54691 0.4
      vertex 2.38033 -6.54691 2.3
      vertex 3.138 -6.27581 0.4
    endloop
  endfacet
  facet normal 0 0 1
    outer loop
      vertex 2.38033 -6.54691 0.4
      vertex 3.138 -6.27581 0.4
      vertex 2.38033 9.14691 0.4
    endloop
  endfacet
  facet normal 0 0 -1
    outer loop
      vertex 2.38033 -6.54691 2.3
      vertex 2.38033 9.14691 2.3
      vertex 3.138 8.87581 2.3
    endloop
  endfacet
  facet normal -0.336891 0.941544 0
    outer loop
      vertex 2.38033 -6.54691 2.3
      vertex 3.138 -6.27581 2.3
      vertex 3.138 -6.27581 0.4
    endloop
  endfacet
  facet normal 0 0 -1
    outer loop
      vertex 2.38033 -6.54691 2.3
      vertex 3.138 8.87581 2.3
      vertex 3.138 -6.27581 2.3
    endloop
  endfacet
  facet normal 0 0 1
    outer loop
      vertex 2.38033 9.14691 0.4
      vertex 3.138 -6.27581 0.4
      vertex 3.138 8.87581 0.4
    endloop
  endfacet
  facet normal -0.336891 -0.941544 0
    outer loop
      vertex 2.38033 9.14691 0.4
      vertex 3.138 8.87581 0.4
      vertex 3.138 8.87581 2.3
    endloop
  endfacet
  facet normal -0.336891 -0.941544 0
    outer loop
      vertex 2.38033 9.14691 0.4
      vertex 3.138 8.87581 2.3
      vertex 2.38033 9.14691 2.3
    endloop
  endfacet
  facet normal 0 0 -1
    outer loop
      vertex 3.05927 -9.41546 0
      vertex 3.05927 9.41546 0
      vertex 4.02669 9.0441 0
    endloop
  endfacet
  facet normal 0.35837 -0.93358 0
    outer loop
      vertex 3.05927 -9.41546 0
      vertex 4.02669 -9.0441 0
      vertex 4.02669 -9.0441 3
    endloop
  endfacet
  facet normal 0.35837 -0.93358 0
    outer loop
      vertex 3.05927 -9.41546 0
      vertex 4.02669 -9.0441 3
      vertex 3.05927 -9.41546 3
    endloop
  endfacet
  facet normal 0 0 -1
    outer loop
      vertex 3.05927 -9.41546 0
      vertex 4.02669 9.0441 0
      vertex 4.02669 -9.0441 0
    endloop
  endfacet
  facet normal 0 0 1
    outer loop
      vertex 3.05927 -9.41546 3
      vertex 4.02669 -9.0441 3
      vertex 3.98299 1.2 3
    endloop
  endfacet
  facet normal 0.35837 0.93358 0
    outer loop
      vertex 3.05927 9.41546 0
      vertex 3.05927 9.41546 3
      vertex 4.02669 9.0441 0
    endloop
  endfacet
  facet normal 0.35837 0.93358 0
    outer loop
      vertex 3.05927 9.41546 3
      vertex 4.02669 9.0441 3
      vertex 4.02669 9.0441 0
    endloop
  endfacet
  facet normal -0.427557 0.903988 0
    outer loop
      vertex 3.138 -6.27581 0.4
      vertex 3.138 -6.27581 2.3
      vertex 3.86545 -5.93175 0.4
    endloop
  endfacet
  facet normal 0 0 1
    outer loop
      vertex 3.138 -6.27581 0.4
      vertex 3.86545 -5.93175 0.4
      vertex 3.138 8.87581 0.4
    endloop
  endfacet
  facet normal 0 0 -1
    outer loop
      vertex 3.138 -6.27581 2.3
      vertex 3.138 8.87581 2.3
      vertex 3.86545 8.53175 2.3
    endloop
  endfacet
  facet normal -0.427557 0.903988 0
    outer loop
      vertex 3.138 -6.27581 2.3
      vertex 3.86545 -5.93175 2.3
      vertex 3.86545 -5.93175 0.4
    endloop
  endfacet
  facet normal 0 0 -1
    outer loop
      vertex 3.138 -6.27581 2.3
      vertex 3.86545 8.53175 2.3
      vertex 3.86545 -5.93175 2.3
    endloop
  endfacet
  facet normal 0 0 1
    outer loop
      vertex 3.138 8.87581 0.4
      vertex 3.86545 -5.93175 0.4
      vertex 3.86545 8.53175 0.4
    endloop
  endfacet
  facet normal -0.427557 -0.903988 0
    outer loop
      vertex 3.138 8.87581 0.4
      vertex 3.86545 8.53175 0.4
      vertex 3.86545 8.53175 2.3
    endloop
  endfacet
  facet normal -0.427557 -0.903988 0
    outer loop
      vertex 3.138 8.87581 0.4
      vertex 3.86545 8.53175 2.3
      vertex 3.138 8.87581 2.3
    endloop
  endfacet
  facet normal -0.514095 0.857733 0
    outer loop
      vertex 3.86545 -5.93175 0.4
      vertex 3.86545 -5.93175 2.3
      vertex 4.55568 -5.51805 0.4
    endloop
  endfacet
  facet normal 0 0 1
    outer loop
      vertex 3.86545 -5.93175 0.4
      vertex 4.55568 -5.51805 0.4
      vertex 3.86545 8.53175 0.4
    endloop
  endfacet
  facet normal 0 0 -1
    outer loop
      vertex 3.86545 -5.93175 2.3
      vertex 3.86545 8.53175 2.3
      vertex 4.55568 8.11805 2.3
    endloop
  endfacet
  facet normal -0.514095 0.857733 0
    outer loop
      vertex 3.86545 -5.93175 2.3
      vertex 4.55568 -5.51805 2.3
      vertex 4.55568 -5.51805 0.4
    endloop
  endfacet
  facet normal 0 0 -1
    outer loop
      vertex 3.86545 -5.93175 2.3
      vertex 4.55568 8.11805 2.3
      vertex 4.55568 -5.51805 2.3
    endloop
  endfacet
  facet normal 0 0 1
    outer loop
      vertex 3.86545 8.53175 0.4
      vertex 4.55568 -5.51805 0.4
      vertex 4.55568 8.11805 0.4
    endloop
  endfacet
  facet normal -0.514095 -0.857733 0
    outer loop
      vertex 3.86545 8.53175 0.4
      vertex 4.55568 8.11805 0.4
      vertex 4.55568 8.11805 2.3
    endloop
  endfacet
  facet normal -0.514095 -0.857733 0
    outer loop
      vertex 3.86545 8.53175 0.4
      vertex 4.55568 8.11805 2.3
      vertex 3.86545 8.53175 2.3
    endloop
  endfacet
  facet normal 0 0 1
    outer loop
      vertex 3.98299 1.2 3
      vertex 4.02669 -9.0441 3
      vertex 4.95 -8.57365 3
    endloop
  endfacet
  facet normal 0 0 1
    outer loop
      vertex 3.98299 1.2 3
      vertex 4.95 -8.57365 3
      vertex 5.81907 -8.00927 3
    endloop
  endfacet
  facet normal 0 0 1
    outer loop
      vertex 3.98299 1.2 3
      vertex 4.95 8.57365 3
      vertex 4.02669 9.0441 3
    endloop
  endfacet
  facet normal 0 0 1
    outer loop
      vertex 3.98299 1.2 3
      vertex 5.81907 -8.00927 3
      vertex 6.62439 -7.35713 3
    endloop
  endfacet
  facet normal 0 0 1
    outer loop
      vertex 3.98299 1.2 3
      vertex 5.81907 8.00927 3
      vertex 4.95 8.57365 3
    endloop
  endfacet
  facet normal 0 0 1
    outer loop
      vertex 3.98299 1.2 3
      vertex 6.62439 -7.35713 3
      vertex 7.35713 -6.62439 3
    endloop
  endfacet
  facet normal 0 0 1
    outer loop
      vertex 3.98299 1.2 3
      vertex 6.62439 7.35713 3
      vertex 5.81907 8.00927 3
    endloop
  endfacet
  facet normal 0 0 1
    outer loop
      vertex 3.98299 1.2 3
      vertex 7.35713 -6.62439 3
      vertex 8.00927 -5.81907 3
    endloop
  endfacet
  facet normal 0 0 1
    outer loop
      vertex 3.98299 1.2 3
      vertex 7.35713 6.62439 3
      vertex 6.62439 7.35713 3
    endloop
  endfacet
  facet normal 0 0 1
    outer loop
      vertex 3.98299 1.2 3
      vertex 8.00927 -5.81907 3
      vertex 8.57365 -4.95 3
    endloop
  endfacet
  facet normal 0 0 1
    outer loop
      vertex 3.98299 1.2 3
      vertex 8.00927 5.81907 3
      vertex 7.35713 6.62439 3
    endloop
  endfacet
  facet normal 0 0 1
    outer loop
      vertex 3.98299 1.2 3
      vertex 8.57365 -4.95 3
      vertex 9.0441 -4.02669 3
    endloop
  endfacet
  facet normal 0 0 1
    outer loop
      vertex 3.98299 1.2 3
      vertex 8.57365 4.95 3
      vertex 8.00927 5.81907 3
    endloop
  endfacet
  facet normal 0 0 1
    outer loop
      vertex 3.98299 1.2 3
      vertex 9.0441 -4.02669 3
      vertex 9.41546 -3.05927 3
    endloop
  endfacet
  facet normal 0 0 1
    outer loop
      vertex 3.98299 1.2 3
      vertex 9.0441 4.02669 3
      vertex 8.57365 4.95 3
    endloop
  endfacet
  facet normal 0 0 1
    outer loop
      vertex 3.98299 1.2 3
      vertex 9.41546 -3.05927 3
      vertex 9.68366 -2.05832 3
    endloop
  endfacet
  facet normal 0 0 1
    outer loop
      vertex 3.98299 1.2 3
      vertex 9.41546 3.05927 3
      vertex 9.0441 4.02669 3
    endloop
  endfacet
  facet normal 0 0 1
    outer loop
      vertex 3.98299 1.2 3
      vertex 9.68366 -2.05832 3
      vertex 9.84577 -1.03483 3
    endloop
  endfacet
  facet normal 0 0 1
    outer loop
      vertex 3.98299 1.2 3
      vertex 9.68366 2.05832 3
      vertex 9.41546 3.05927 3
    endloop
  endfacet
  facet normal 0 0 1
    outer loop
      vertex 3.98299 1.2 3
      vertex 9.84577 -1.03483 3
      vertex 9.9 0 3
    endloop
  endfacet
  facet normal 0 0 1
    outer loop
      vertex 3.98299 1.2 3
      vertex 9.84577 1.03483 3
      vertex 9.68366 2.05832 3
    endloop
  endfacet
  facet normal 0 0 1
    outer loop
      vertex 3.98299 1.2 3
      vertex 9.9 0 3
      vertex 9.84577 1.03483 3
    endloop
  endfacet
  facet normal 0 0 -1
    outer loop
      vertex 4.02669 -9.0441 0
      vertex 4.02669 9.0441 0
      vertex 4.95 8.57365 0
    endloop
  endfacet
  facet normal 0.453991 -0.891007 0
    outer loop
      vertex 4.02669 -9.0441 0
      vertex 4.95 -8.57365 0
      vertex 4.95 -8.57365 3
    endloop
  endfacet
  facet normal 0.453991 -0.891007 0
    outer loop
      vertex 4.02669 -9.0441 0
      vertex 4.95 -8.57365 3
      vertex 4.02669 -9.0441 3
    endloop
  endfacet
  facet normal 0 0 -1
    outer loop
      vertex 4.02669 -9.0441 0
      vertex 4.95 8.57365 0
      vertex 4.95 -8.57365 0
    endloop
  endfacet
  facet normal 0.453991 0.891007 0
    outer loop
      vertex 4.02669 9.0441 0
      vertex 4.02669 9.0441 3
      vertex 4.95 8.57365 0
    endloop
  endfacet
  facet normal 0.453991 0.891007 0
    outer loop
      vertex 4.02669 9.0441 3
      vertex 4.95 8.57365 3
      vertex 4.95 8.57365 0
    endloop
  endfacet
  facet normal -0.595709 0.803201 0
    outer loop
      vertex 4.55568 -5.51805 0.4
      vertex 4.55568 -5.51805 2.3
      vertex 5.20202 -5.03868 0.4
    endloop
  endfacet
  facet normal 0 0 1
    outer loop
      vertex 4.55568 -5.51805 0.4
      vertex 5.20202 -5.03868 0.4
      vertex 4.55568 8.11805 0.4
    endloop
  endfacet
  facet normal 0 0 -1
    outer loop
      vertex 4.55568 -5.51805 2.3
      vertex 4.55568 8.11805 2.3
      vertex 5.20202 7.63869 2.3
    endloop
  endfacet
  facet normal -0.595709 0.803201 0
    outer loop
      vertex 4.55568 -5.51805 2.3
      vertex 5.20202 -5.03868 2.3
      vertex 5.20202 -5.03868 0.4
    endloop
  endfacet
  facet normal 0 0 -1
    outer loop
      vertex 4.55568 -5.51805 2.3
      vertex 5.20202 7.63869 2.3
      vertex 5.20202 -5.03868 2.3
    endloop
  endfacet
  facet normal 0 0 1
    outer loop
      vertex 4.55568 8.11805 0.4
      vertex 5.20202 -5.03868 0.4
      vertex 5.20202 7.63869 0.4
    endloop
  endfacet
  facet normal -0.595701 -0.803207 0
    outer loop
      vertex 4.55568 8.11805 0.4
      vertex 5.20202 7.63869 0.4
      vertex 5.20202 7.63869 2.3
    endloop
  endfacet
  facet normal -0.595701 -0.803207 0
    outer loop
      vertex 4.55568 8.11805 0.4
      vertex 5.20202 7.63869 2.3
      vertex 4.55568 8.11805 2.3
    endloop
  endfacet
  facet normal 0 0 -1
    outer loop
      vertex 4.95 -8.57365 0
      vertex 4.95 8.57365 0
      vertex 5.81907 8.00927 0
    endloop
  endfacet
  facet normal 0.544639 -0.838671 0
    outer loop
      vertex 4.95 -8.57365 0
      vertex 5.81907 -8.00927 0
      vertex 5.81907 -8.00927 3
    endloop
  endfacet
  facet normal 0.544639 -0.838671 0
    outer loop
      vertex 4.95 -8.57365 0
      vertex 5.81907 -8.00927 3
      vertex 4.95 -8.57365 3
    endloop
  endfacet
  facet normal 0 0 -1
    outer loop
      vertex 4.95 -8.57365 0
      vertex 5.81907 8.00927 0
      vertex 5.81907 -8.00927 0
    endloop
  endfacet
  facet normal 0.544639 0.838671 0
    outer loop
      vertex 4.95 8.57365 0
      vertex 4.95 8.57365 3
      vertex 5.81907 8.00927 0
    endloop
  endfacet
  facet normal 0.544639 0.838671 0
    outer loop
      vertex 4.95 8.57365 3
      vertex 5.81907 8.00927 3
      vertex 5.81907 8.00927 0
    endloop
  endfacet
  facet normal -0.671559 0.740951 0
    outer loop
      vertex 5.20202 -5.03868 0.4
      vertex 5.20202 -5.03868 2.3
      vertex 5.79827 -4.49827 0.4
    endloop
  endfacet
  facet normal 0 0 1
    outer loop
      vertex 5.20202 -5.03868 0.4
      vertex 5.79827 -4.49827 0.4
      vertex 5.20202 7.63869 0.4
    endloop
  endfacet
  facet normal 0 0 -1
    outer loop
      vertex 5.20202 -5.03868 2.3
      vertex 5.20202 7.63869 2.3
      vertex 5.79827 7.09828 2.3
    endloop
  endfacet
  facet normal -0.671559 0.740951 0
    outer loop
      vertex 5.20202 -5.03868 2.3
      vertex 5.79827 -4.49827 2.3
      vertex 5.79827 -4.49827 0.4
    endloop
  endfacet
  facet normal 0 0 -1
    outer loop
      vertex 5.20202 -5.03868 2.3
      vertex 5.79827 7.09828 2.3
      vertex 5.79827 -4.49827 2.3
    endloop
  endfacet
  facet normal 0 0 1
    outer loop
      vertex 5.20202 7.63869 0.4
      vertex 5.79827 -4.49827 0.4
      vertex 5.79827 7.09828 0.4
    endloop
  endfacet
  facet normal -0.671559 -0.740951 0
    outer loop
      vertex 5.20202 7.63869 0.4
      vertex 5.79827 7.09828 0.4
      vertex 5.79827 7.09828 2.3
    endloop
  endfacet
  facet normal -0.671559 -0.740951 0
    outer loop
      vertex 5.20202 7.63869 0.4
      vertex 5.79827 7.09828 2.3
      vertex 5.20202 7.63869 2.3
    endloop
  endfacet
  facet normal -0.740945 0.671566 0
    outer loop
      vertex 5.79827 -4.49827 0.4
      vertex 5.79827 -4.49827 2.3
      vertex 6.33869 -3.90202 2.3
    endloop
  endfacet
  facet normal 0 0 1
    outer loop
      vertex 5.79827 -4.49827 0.4
      vertex 6.33869 -3.90202 0.4
      vertex 5.79827 7.09828 0.4
    endloop
  endfacet
  facet normal -0.740945 0.671566 0
    outer loop
      vertex 5.79827 -4.49827 0.4
      vertex 6.33869 -3.90202 2.3
      vertex 6.33869 -3.90202 0.4
    endloop
  endfacet
  facet normal 0 0 -1
    outer loop
      vertex 5.79827 -4.49827 2.3
      vertex 5.79827 7.09828 2.3
      vertex 6.33869 6.50202 2.3
    endloop
  endfacet
  facet normal 0 0 -1
    outer loop
      vertex 5.79827 -4.49827 2.3
      vertex 6.33869 6.50202 2.3
      vertex 6.33869 -3.90202 2.3
    endloop
  endfacet
  facet normal 0 0 1
    outer loop
      vertex 5.79827 7.09828 0.4
      vertex 6.33869 -3.90202 0.4
      vertex 6.33869 6.50202 0.4
    endloop
  endfacet
  facet normal -0.74095 -0.67156 0
    outer loop
      vertex 5.79827 7.09828 0.4
      vertex 6.33869 6.50202 0.4
      vertex 5.79827 7.09828 2.3
    endloop
  endfacet
  facet normal -0.74095 -0.67156 0
    outer loop
      vertex 5.79827 7.09828 2.3
      vertex 6.33869 6.50202 0.4
      vertex 6.33869 6.50202 2.3
    endloop
  endfacet
  facet normal 0 0 -1
    outer loop
      vertex 5.81907 -8.00927 0
      vertex 5.81907 8.00927 0
      vertex 6.62439 7.35713 0
    endloop
  endfacet
  facet normal 0.629323 -0.777144 0
    outer loop
      vertex 5.81907 -8.00927 0
      vertex 6.62439 -7.35713 0
      vertex 6.62439 -7.35713 3
    endloop
  endfacet
  facet normal 0.629323 -0.777144 0
    outer loop
      vertex 5.81907 -8.00927 0
      vertex 6.62439 -7.35713 3
      vertex 5.81907 -8.00927 3
    endloop
  endfacet
  facet normal 0 0 -1
    outer loop
      vertex 5.81907 -8.00927 0
      vertex 6.62439 7.35713 0
      vertex 6.62439 -7.35713 0
    endloop
  endfacet
  facet normal 0.629323 0.777144 0
    outer loop
      vertex 5.81907 8.00927 0
      vertex 5.81907 8.00927 3
      vertex 6.62439 7.35713 0
    endloop
  endfacet
  facet normal 0.629323 0.777144 0
    outer loop
      vertex 5.81907 8.00927 3
      vertex 6.62439 7.35713 3
      vertex 6.62439 7.35713 0
    endloop
  endfacet
  facet normal -0.803207 0.595701 0
    outer loop
      vertex 6.33869 -3.90202 0.4
      vertex 6.33869 -3.90202 2.3
      vertex 6.81805 -3.25568 2.3
    endloop
  endfacet
  facet normal 0 0 1
    outer loop
      vertex 6.33869 -3.90202 0.4
      vertex 6.81805 -3.25568 0.4
      vertex 6.33869 6.50202 0.4
    endloop
  endfacet
  facet normal -0.803207 0.595701 0
    outer loop
      vertex 6.33869 -3.90202 0.4
      vertex 6.81805 -3.25568 2.3
      vertex 6.81805 -3.25568 0.4
    endloop
  endfacet
  facet normal 0 0 -1
    outer loop
      vertex 6.33869 -3.90202 2.3
      vertex 6.33869 6.50202 2.3
      vertex 6.81805 5.85568 2.3
    endloop
  endfacet
  facet normal 0 0 -1
    outer loop
      vertex 6.33869 -3.90202 2.3
      vertex 6.81805 5.85568 2.3
      vertex 6.81805 -3.25568 2.3
    endloop
  endfacet
  facet normal 0 0 1
    outer loop
      vertex 6.33869 6.50202 0.4
      vertex 6.81805 -3.25568 0.4
      vertex 6.81805 5.85568 0.4
    endloop
  endfacet
  facet normal -0.803207 -0.595701 0
    outer loop
      vertex 6.33869 6.50202 0.4
      vertex 6.81805 5.85568 0.4
      vertex 6.33869 6.50202 2.3
    endloop
  endfacet
  facet normal -0.803207 -0.595701 0
    outer loop
      vertex 6.33869 6.50202 2.3
      vertex 6.81805 5.85568 0.4
      vertex 6.81805 5.85568 2.3
    endloop
  endfacet
  facet normal 0 0 -1
    outer loop
      vertex 6.62439 -7.35713 0
      vertex 6.62439 7.35713 0
      vertex 7.35713 6.62439 0
    endloop
  endfacet
  facet normal 0.707107 -0.707107 0
    outer loop
      vertex 6.62439 -7.35713 0
      vertex 7.35713 -6.62439 0
      vertex 6.62439 -7.35713 3
    endloop
  endfacet
  facet normal 0 0 -1
    outer loop
      vertex 6.62439 -7.35713 0
      vertex 7.35713 6.62439 0
      vertex 7.35713 -6.62439 0
    endloop
  endfacet
  facet normal 0.707107 -0.707107 0
    outer loop
      vertex 6.62439 -7.35713 3
      vertex 7.35713 -6.62439 0
      vertex 7.35713 -6.62439 3
    endloop
  endfacet
  facet normal 0.707107 0.707107 0
    outer loop
      vertex 6.62439 7.35713 0
      vertex 6.62439 7.35713 3
      vertex 7.35713 6.62439 3
    endloop
  endfacet
  facet normal 0.707107 0.707107 0
    outer loop
      vertex 6.62439 7.35713 0
      vertex 7.35713 6.62439 3
      vertex 7.35713 6.62439 0
    endloop
  endfacet
  facet normal -0.857733 0.514095 0
    outer loop
      vertex 6.81805 -3.25568 0.4
      vertex 6.81805 -3.25568 2.3
      vertex 7.23175 -2.56545 2.3
    endloop
  endfacet
  facet normal 0 0 1
    outer loop
      vertex 6.81805 -3.25568 0.4
      vertex 7.23175 -2.56545 0.4
      vertex 6.81805 5.85568 0.4
    endloop
  endfacet
  facet normal -0.857733 0.514095 0
    outer loop
      vertex 6.81805 -3.25568 0.4
      vertex 7.23175 -2.56545 2.3
      vertex 7.23175 -2.56545 0.4
    endloop
  endfacet
  facet normal 0 0 -1
    outer loop
      vertex 6.81805 -3.25568 2.3
      vertex 6.81805 5.85568 2.3
      vertex 7.23175 5.16545 2.3
    endloop
  endfacet
  facet normal 0 0 -1
    outer loop
      vertex 6.81805 -3.25568 2.3
      vertex 7.23175 5.16545 2.3
      vertex 7.23175 -2.56545 2.3
    endloop
  endfacet
  facet normal 0 0 1
    outer loop
      vertex 6.81805 5.85568 0.4
      vertex 7.23175 -2.56545 0.4
      vertex 7.23175 5.16545 0.4
    endloop
  endfacet
  facet normal -0.857733 -0.514095 0
    outer loop
      vertex 6.81805 5.85568 0.4
      vertex 7.23175 5.16545 0.4
      vertex 6.81805 5.85568 2.3
    endloop
  endfacet
  facet normal -0.857733 -0.514095 0
    outer loop
      vertex 6.81805 5.85568 2.3
      vertex 7.23175 5.16545 0.4
      vertex 7.23175 5.16545 2.3
    endloop
  endfacet
  facet normal -0.903988 0.427557 0
    outer loop
      vertex 7.23175 -2.56545 0.4
      vertex 7.23175 -2.56545 2.3
      vertex 7.57581 -1.838 2.3
    endloop
  endfacet
  facet normal 0 0 1
    outer loop
      vertex 7.23175 -2.56545 0.4
      vertex 7.57581 -1.838 0.4
      vertex 7.23175 5.16545 0.4
    endloop
  endfacet
  facet normal -0.903988 0.427557 0
    outer loop
      vertex 7.23175 -2.56545 0.4
      vertex 7.57581 -1.838 2.3
      vertex 7.57581 -1.838 0.4
    endloop
  endfacet
  facet normal 0 0 -1
    outer loop
      vertex 7.23175 -2.56545 2.3
      vertex 7.23175 5.16545 2.3
      vertex 7.57581 4.438 2.3
    endloop
  endfacet
  facet normal 0 0 -1
    outer loop
      vertex 7.23175 -2.56545 2.3
      vertex 7.57581 4.438 2.3
      vertex 7.57581 -1.838 2.3
    endloop
  endfacet
  facet normal 0 0 1
    outer loop
      vertex 7.23175 5.16545 0.4
      vertex 7.57581 -1.838 0.4
      vertex 7.57581 4.438 0.4
    endloop
  endfacet
  facet normal -0.903988 -0.427557 0
    outer loop
      vertex 7.23175 5.16545 0.4
      vertex 7.57581 4.438 0.4
      vertex 7.23175 5.16545 2.3
    endloop
  endfacet
  facet normal -0.903988 -0.427557 0
    outer loop
      vertex 7.23175 5.16545 2.3
      vertex 7.57581 4.438 0.4
      vertex 7.57581 4.438 2.3
    endloop
  endfacet
  facet normal 0 0 -1
    outer loop
      vertex 7.35713 -6.62439 0
      vertex 7.35713 6.62439 0
      vertex 8.00927 5.81907 0
    endloop
  endfacet
  facet normal 0.777144 -0.629323 0
    outer loop
      vertex 7.35713 -6.62439 0
      vertex 8.00927 -5.81907 0
      vertex 7.35713 -6.62439 3
    endloop
  endfacet
  facet normal 0 0 -1
    outer loop
      vertex 7.35713 -6.62439 0
      vertex 8.00927 5.81907 0
      vertex 8.00927 -5.81907 0
    endloop
  endfacet
  facet normal 0.777144 -0.629323 0
    outer loop
      vertex 7.35713 -6.62439 3
      vertex 8.00927 -5.81907 0
      vertex 8.00927 -5.81907 3
    endloop
  endfacet
  facet normal 0.777144 0.629323 0
    outer loop
      vertex 7.35713 6.62439 0
      vertex 7.35713 6.62439 3
      vertex 8.00927 5.81907 3
    endloop
  endfacet
  facet normal 0.777144 0.629323 0
    outer loop
      vertex 7.35713 6.62439 0
      vertex 8.00927 5.81907 3
      vertex 8.00927 5.81907 0
    endloop
  endfacet
  facet normal -0.941544 0.336891 0
    outer loop
      vertex 7.57581 -1.838 0.4
      vertex 7.57581 -1.838 2.3
      vertex 7.84691 -1.08033 2.3
    endloop
  endfacet
  facet normal 0 0 1
    outer loop
      vertex 7.57581 -1.838 0.4
      vertex 7.84691 -1.08033 0.4
      vertex 7.57581 4.438 0.4
    endloop
  endfacet
  facet normal -0.941544 0.336891 0
    outer loop
      vertex 7.57581 -1.838 0.4
      vertex 7.84691 -1.08033 2.3
      vertex 7.84691 -1.08033 0.4
    endloop
  endfacet
  facet normal 0 0 -1
    outer loop
      vertex 7.57581 -1.838 2.3
      vertex 7.57581 4.438 2.3
      vertex 7.84691 3.68033 2.3
    endloop
  endfacet
  facet normal 0 0 -1
    outer loop
      vertex 7.57581 -1.838 2.3
      vertex 7.84691 3.68033 2.3
      vertex 7.84691 -1.08033 2.3
    endloop
  endfacet
  facet normal 0 0 1
    outer loop
      vertex 7.57581 4.438 0.4
      vertex 7.84691 -1.08033 0.4
      vertex 7.84691 3.68033 0.4
    endloop
  endfacet
  facet normal -0.941544 -0.336891 0
    outer loop
      vertex 7.57581 4.438 0.4
      vertex 7.84691 3.68033 0.4
      vertex 7.57581 4.438 2.3
    endloop
  endfacet
  facet normal -0.941544 -0.336891 0
    outer loop
      vertex 7.57581 4.438 2.3
      vertex 7.84691 3.68033 0.4
      vertex 7.84691 3.68033 2.3
    endloop
  endfacet
  facet normal -0.970031 0.242983 0
    outer loop
      vertex 7.84691 -1.08033 0.4
      vertex 7.84691 -1.08033 2.3
      vertex 8.04244 -0.29974 2.3
    endloop
  endfacet
  facet normal 0 0 1
    outer loop
      vertex 7.84691 -1.08033 0.4
      vertex 8.04244 -0.29974 0.4
      vertex 7.84691 3.68033 0.4
    endloop
  endfacet
  facet normal -0.970031 0.242983 0
    outer loop
      vertex 7.84691 -1.08033 0.4
      vertex 8.04244 -0.29974 2.3
      vertex 8.04244 -0.29974 0.4
    endloop
  endfacet
  facet normal 0 0 -1
    outer loop
      vertex 7.84691 -1.08033 2.3
      vertex 7.84691 3.68033 2.3
      vertex 8.04244 2.89974 2.3
    endloop
  endfacet
  facet normal 0 0 -1
    outer loop
      vertex 7.84691 -1.08033 2.3
      vertex 8.04244 2.89974 2.3
      vertex 8.04244 -0.29974 2.3
    endloop
  endfacet
  facet normal 0 0 1
    outer loop
      vertex 7.84691 3.68033 0.4
      vertex 8.04244 -0.29974 0.4
      vertex 8.04244 2.89974 0.4
    endloop
  endfacet
  facet normal -0.970031 -0.242983 0
    outer loop
      vertex 7.84691 3.68033 0.4
      vertex 8.04244 2.89974 0.4
      vertex 7.84691 3.68033 2.3
    endloop
  endfacet
  facet normal -0.970031 -0.242983 0
    outer loop
      vertex 7.84691 3.68033 2.3
      vertex 8.04244 2.89974 0.4
      vertex 8.04244 2.89974 2.3
    endloop
  endfacet
  facet normal 0 0 -1
    outer loop
      vertex 8.00927 -5.81907 0
      vertex 8.00927 5.81907 0
      vertex 8.57365 4.95 0
    endloop
  endfacet
  facet normal 0.838671 -0.544639 0
    outer loop
      vertex 8.00927 -5.81907 0
      vertex 8.57365 -4.95 0
      vertex 8.00927 -5.81907 3
    endloop
  endfacet
  facet normal 0 0 -1
    outer loop
      vertex 8.00927 -5.81907 0
      vertex 8.57365 4.95 0
      vertex 8.57365 -4.95 0
    endloop
  endfacet
  facet normal 0.838671 -0.544639 0
    outer loop
      vertex 8.00927 -5.81907 3
      vertex 8.57365 -4.95 0
      vertex 8.57365 -4.95 3
    endloop
  endfacet
  facet normal 0.838671 0.544639 0
    outer loop
      vertex 8.00927 5.81907 0
      vertex 8.00927 5.81907 3
      vertex 8.57365 4.95 3
    endloop
  endfacet
  facet normal 0.838671 0.544639 0
    outer loop
      vertex 8.00927 5.81907 0
      vertex 8.57365 4.95 3
      vertex 8.57365 4.95 0
    endloop
  endfacet
  facet normal -0.989177 0.146724 0
    outer loop
      vertex 8.04244 -0.29974 0.4
      vertex 8.04244 -0.29974 2.3
      vertex 8.16051 0.496259 2.3
    endloop
  endfacet
  facet normal 0 0 1
    outer loop
      vertex 8.04244 -0.29974 0.4
      vertex 8.16051 0.496259 0.4
      vertex 8.04244 2.89974 0.4
    endloop
  endfacet
  facet normal -0.989177 0.146724 0
    outer loop
      vertex 8.04244 -0.29974 0.4
      vertex 8.16051 0.496259 2.3
      vertex 8.16051 0.496259 0.4
    endloop
  endfacet
  facet normal 0 0 -1
    outer loop
      vertex 8.04244 -0.29974 2.3
      vertex 8.04244 2.89974 2.3
      vertex 8.16051 2.10374 2.3
    endloop
  endfacet
  facet normal 0 0 -1
    outer loop
      vertex 8.04244 -0.29974 2.3
      vertex 8.16051 2.10374 2.3
      vertex 8.16051 0.496259 2.3
    endloop
  endfacet
  facet normal 0 0 1
    outer loop
      vertex 8.04244 2.89974 0.4
      vertex 8.16051 0.496259 0.4
      vertex 8.16051 2.10374 0.4
    endloop
  endfacet
  facet normal -0.989177 -0.146724 0
    outer loop
      vertex 8.04244 2.89974 0.4
      vertex 8.16051 2.10374 0.4
      vertex 8.04244 2.89974 2.3
    endloop
  endfacet
  facet normal -0.989177 -0.146724 0
    outer loop
      vertex 8.04244 2.89974 2.3
      vertex 8.16051 2.10374 0.4
      vertex 8.16051 2.10374 2.3
    endloop
  endfacet
  facet normal -0.998795 0.0490735 0
    outer loop
      vertex 8.16051 0.496259 0.4
      vertex 8.16051 0.496259 2.3
      vertex 8.2 1.3 2.3
    endloop
  endfacet
  facet normal 0 0 1
    outer loop
      vertex 8.16051 0.496259 0.4
      vertex 8.2 1.3 0.4
      vertex 8.16051 2.10374 0.4
    endloop
  endfacet
  facet normal -0.998795 0.0490735 0
    outer loop
      vertex 8.16051 0.496259 0.4
      vertex 8.2 1.3 2.3
      vertex 8.2 1.3 0.4
    endloop
  endfacet
  facet normal 0 0 -1
    outer loop
      vertex 8.16051 0.496259 2.3
      vertex 8.16051 2.10374 2.3
      vertex 8.2 1.3 2.3
    endloop
  endfacet
  facet normal -0.998795 -0.0490736 0
    outer loop
      vertex 8.16051 2.10374 0.4
      vertex 8.2 1.3 0.4
      vertex 8.16051 2.10374 2.3
    endloop
  endfacet
  facet normal -0.998795 -0.0490736 0
    outer loop
      vertex 8.16051 2.10374 2.3
      vertex 8.2 1.3 0.4
      vertex 8.2 1.3 2.3
    endloop
  endfacet
  facet normal 0 0 -1
    outer loop
      vertex 8.57365 -4.95 0
      vertex 8.57365 4.95 0
      vertex 9.0441 4.02669 0
    endloop
  endfacet
  facet normal 0.891007 -0.453991 0
    outer loop
      vertex 8.57365 -4.95 0
      vertex 9.0441 -4.02669 0
      vertex 8.57365 -4.95 3
    endloop
  endfacet
  facet normal 0 0 -1
    outer loop
      vertex 8.57365 -4.95 0
      vertex 9.0441 4.02669 0
      vertex 9.0441 -4.02669 0
    endloop
  endfacet
  facet normal 0.891007 -0.453991 0
    outer loop
      vertex 8.57365 -4.95 3
      vertex 9.0441 -4.02669 0
      vertex 9.0441 -4.02669 3
    endloop
  endfacet
  facet normal 0.891007 0.453991 0
    outer loop
      vertex 8.57365 4.95 0
      vertex 8.57365 4.95 3
      vertex 9.0441 4.02669 3
    endloop
  endfacet
  facet normal 0.891007 0.453991 0
    outer loop
      vertex 8.57365 4.95 0
      vertex 9.0441 4.02669 3
      vertex 9.0441 4.02669 0
    endloop
  endfacet
  facet normal 0 0 -1
    outer loop
      vertex 9.0441 -4.02669 0
      vertex 9.0441 4.02669 0
      vertex 9.41546 3.05927 0
    endloop
  endfacet
  facet normal 0.93358 -0.35837 0
    outer loop
      vertex 9.0441 -4.02669 0
      vertex 9.41546 -3.05927 0
      vertex 9.0441 -4.02669 3
    endloop
  endfacet
  facet normal 0 0 -1
    outer loop
      vertex 9.0441 -4.02669 0
      vertex 9.41546 3.05927 0
      vertex 9.41546 -3.05927 0
    endloop
  endfacet
  facet normal 0.93358 -0.35837 0
    outer loop
      vertex 9.0441 -4.02669 3
      vertex 9.41546 -3.05927 0
      vertex 9.41546 -3.05927 3
    endloop
  endfacet
  facet normal 0.93358 0.35837 0
    outer loop
      vertex 9.0441 4.02669 0
      vertex 9.0441 4.02669 3
      vertex 9.41546 3.05927 3
    endloop
  endfacet
  facet normal 0.93358 0.35837 0
    outer loop
      vertex 9.0441 4.02669 0
      vertex 9.41546 3.05927 3
      vertex 9.41546 3.05927 0
    endloop
  endfacet
  facet normal 0 0 -1
    outer loop
      vertex 9.41546 -3.05927 0
      vertex 9.41546 3.05927 0
      vertex 9.68366 2.05832 0
    endloop
  endfacet
  facet normal 0.965927 -0.258816 0
    outer loop
      vertex 9.41546 -3.05927 0
      vertex 9.68366 -2.05832 0
      vertex 9.41546 -3.05927 3
    endloop
  endfacet
  facet normal 0 0 -1
    outer loop
      vertex 9.41546 -3.05927 0
      vertex 9.68366 2.05832 0
      vertex 9.68366 -2.05832 0
    endloop
  endfacet
  facet normal 0.965927 -0.258816 0
    outer loop
      vertex 9.41546 -3.05927 3
      vertex 9.68366 -2.05832 0
      vertex 9.68366 -2.05832 3
    endloop
  endfacet
  facet normal 0.965927 0.258816 0
    outer loop
      vertex 9.41546 3.05927 0
      vertex 9.41546 3.05927 3
      vertex 9.68366 2.05832 3
    endloop
  endfacet
  facet normal 0.965927 0.258816 0
    outer loop
      vertex 9.41546 3.05927 0
      vertex 9.68366 2.05832 3
      vertex 9.68366 2.05832 0
    endloop
  endfacet
  facet normal 0 0 -1
    outer loop
      vertex 9.68366 -2.05832 0
      vertex 9.68366 2.05832 0
      vertex 9.84577 1.03483 0
    endloop
  endfacet
  facet normal 0.987688 -0.156439 0
    outer loop
      vertex 9.68366 -2.05832 0
      vertex 9.84577 -1.03483 0
      vertex 9.68366 -2.05832 3
    endloop
  endfacet
  facet normal 0 0 -1
    outer loop
      vertex 9.68366 -2.05832 0
      vertex 9.84577 1.03483 0
      vertex 9.84577 -1.03483 0
    endloop
  endfacet
  facet normal 0.987688 -0.156439 0
    outer loop
      vertex 9.68366 -2.05832 3
      vertex 9.84577 -1.03483 0
      vertex 9.84577 -1.03483 3
    endloop
  endfacet
  facet normal 0.987688 0.156439 0
    outer loop
      vertex 9.68366 2.05832 0
      vertex 9.68366 2.05832 3
      vertex 9.84577 1.03483 3
    endloop
  endfacet
  facet normal 0.987688 0.156439 0
    outer loop
      vertex 9.68366 2.05832 0
      vertex 9.84577 1.03483 3
      vertex 9.84577 1.03483 0
    endloop
  endfacet
  facet normal 0 0 -1
    outer loop
      vertex 9.84577 -1.03483 0
      vertex 9.84577 1.03483 0
      vertex 9.9 0 0
    endloop
  endfacet
  facet normal 0.99863 -0.0523329 0
    outer loop
      vertex 9.84577 -1.03483 0
      vertex 9.9 0 0
      vertex 9.84577 -1.03483 3
    endloop
  endfacet
  facet normal 0.99863 -0.0523329 0
    outer loop
      vertex 9.84577 -1.03483 3
      vertex 9.9 0 0
      vertex 9.9 0 3
    endloop
  endfacet
  facet normal 0.99863 0.0523329 0
    outer loop
      vertex 9.84577 1.03483 0
      vertex 9.84577 1.03483 3
      vertex 9.9 0 3
    endloop
  endfacet
  facet normal 0.99863 0.0523329 0
    outer loop
      vertex 9.84577 1.03483 0
      vertex 9.9 0 3
      vertex 9.9 0 0
    endloop
  endfacet
endsolid OpenSCAD_Model
