solid OpenSCAD_Model
  facet normal 0.707107 0 -0.707107
    outer loop
      vertex -10.1 -5 77
      vertex -10.1 5 77
      vertex -9.1 -5 78
    endloop
  endfacet
  facet normal 1 0 0
    outer loop
      vertex -10.1 -5 83
      vertex -10.1 5 83
      vertex -10.1 -5 90.1
    endloop
  endfacet
  facet normal 0.707107 0 0.707107
    outer loop
      vertex -10.1 -5 83
      vertex -9.1 -5 82
      vertex -9.1 5 82
    endloop
  endfacet
  facet normal 0.707107 0 0.707107
    outer loop
      vertex -10.1 -5 83
      vertex -9.1 5 82
      vertex -10.1 5 83
    endloop
  endfacet
  facet normal 1 0 0
    outer loop
      vertex -10.1 -5 90.1
      vertex -10.1 5 83
      vertex -10.1 5 90.1
    endloop
  endfacet
  facet normal 0 0 -1
    outer loop
      vertex -10.1 -5 90.1
      vertex -10.1 5 90.1
      vertex -3 5 90.1
    endloop
  endfacet
  facet normal 0 0 -1
    outer loop
      vertex -10.1 -5 90.1
      vertex -3 5 90.1
      vertex -3 -5 90.1
    endloop
  endfacet
  facet normal 0.707107 0 -0.707107
    outer loop
      vertex -10.1 5 77
      vertex -9.1 5 78
      vertex -9.1 -5 78
    endloop
  endfacet
  facet normal 0 -1 0
    outer loop
      vertex -11.1 -5 77
      vertex -10.1 -5 77
      vertex -9.1 -5 78
    endloop
  endfacet
  facet normal 0 0 -1
    outer loop
      vertex -11.1 -5 77
      vertex -10.1 5 77
      vertex -10.1 -5 77
    endloop
  endfacet
  facet normal 0 0 -1
    outer loop
      vertex -11.1 -5 77
      vertex -11.1 5 77
      vertex -10.1 5 77
    endloop
  endfacet
  facet normal 0 -1 0
    outer loop
      vertex -11.1 -5 77
      vertex -9.1 -5 78
      vertex -9.1 -5 82
    endloop
  endfacet
  facet normal 0 -1 0
    outer loop
      vertex -11.1 -5 92.1
      vertex -10.1 -5 90.1
      vertex -3 -5 90.1
    endloop
  endfacet
  facet normal 0 -1 0
    outer loop
      vertex -11.1 -5 92.1
      vertex -3 -5 90.1
      vertex 11.1 -5 92.1
    endloop
  endfacet
  facet normal 0 0 1
    outer loop
      vertex -11.1 -5 92.1
      vertex 11.1 -5 92.1
      vertex -11.1 5 92.1
    endloop
  endfacet
  facet normal 0 1 0
    outer loop
      vertex -11.1 5 77
      vertex -9.1 5 78
      vertex -10.1 5 77
    endloop
  endfacet
  facet normal 0 1 0
    outer loop
      vertex -11.1 5 77
      vertex -9.1 5 82
      vertex -9.1 5 78
    endloop
  endfacet
  facet normal 0 1 0
    outer loop
      vertex -11.1 5 92.1
      vertex -3 5 90.1
      vertex -10.1 5 90.1
    endloop
  endfacet
  facet normal 0 0 1
    outer loop
      vertex -11.1 5 92.1
      vertex 11.1 -5 92.1
      vertex 11.1 5 92.1
    endloop
  endfacet
  facet normal 0 1 0
    outer loop
      vertex -11.1 5 92.1
      vertex 11.1 5 92.1
      vertex 3 5 90.1
    endloop
  endfacet
  facet normal 0 1 0
    outer loop
      vertex -11.1 5 92.1
      vertex 3 5 90.1
      vertex -3 5 90.1
    endloop
  endfacet
  facet normal 0.970924 0 -0.239389
    outer loop
      vertex -11.1573 -5 76.7676
      vertex -11.1573 5 76.7676
      vertex -11.1 -5 77
    endloop
  endfacet
  facet normal 0.970924 0 -0.239389
    outer loop
      vertex -11.1573 5 76.7676
      vertex -11.1 5 77
      vertex -11.1 -5 77
    endloop
  endfacet
  facet normal 0.748446 0 -0.663196
    outer loop
      vertex -11.316 -5 76.5885
      vertex -11.316 5 76.5885
      vertex -11.1573 -5 76.7676
    endloop
  endfacet
  facet normal 0.748446 0 -0.663196
    outer loop
      vertex -11.316 5 76.5885
      vertex -11.1573 5 76.7676
      vertex -11.1573 -5 76.7676
    endloop
  endfacet
  facet normal 0.354831 0 -0.934931
    outer loop
      vertex -11.5397 -5 76.5036
      vertex -11.316 5 76.5885
      vertex -11.316 -5 76.5885
    endloop
  endfacet
  facet normal 0.354831 0 -0.934931
    outer loop
      vertex -11.5397 -5 76.5036
      vertex -11.5397 5 76.5036
      vertex -11.316 5 76.5885
    endloop
  endfacet
  facet normal -0.120743 0 -0.992684
    outer loop
      vertex -11.7773 -5 76.5325
      vertex -11.5397 5 76.5036
      vertex -11.5397 -5 76.5036
    endloop
  endfacet
  facet normal -0.120743 0 -0.992684
    outer loop
      vertex -11.7773 -5 76.5325
      vertex -11.7773 5 76.5325
      vertex -11.5397 5 76.5036
    endloop
  endfacet
  facet normal -0.56784 0 -0.823139
    outer loop
      vertex -11.9743 -5 76.6684
      vertex -11.7773 5 76.5325
      vertex -11.7773 -5 76.5325
    endloop
  endfacet
  facet normal -0.56784 0 -0.823139
    outer loop
      vertex -11.9743 -5 76.6684
      vertex -11.9743 5 76.6684
      vertex -11.7773 5 76.5325
    endloop
  endfacet
  facet normal 0 -1 0
    outer loop
      vertex -12.0855 -5 76.8803
      vertex -11.9743 -5 76.6684
      vertex -12.0855 -5 77
    endloop
  endfacet
  facet normal -1 0 0
    outer loop
      vertex -12.0855 -5 76.8803
      vertex -12.0855 -5 77
      vertex -12.0855 5 77
    endloop
  endfacet
  facet normal -0.88548 0 -0.464678
    outer loop
      vertex -12.0855 -5 76.8803
      vertex -12.0855 5 76.8803
      vertex -11.9743 -5 76.6684
    endloop
  endfacet
  facet normal -1 0 0
    outer loop
      vertex -12.0855 -5 76.8803
      vertex -12.0855 5 77
      vertex -12.0855 5 76.8803
    endloop
  endfacet
  facet normal 0 -1 0
    outer loop
      vertex -12.0855 -5 77
      vertex -11.1 -5 77
      vertex -9.1 -5 82
    endloop
  endfacet
  facet normal 0 -1 0
    outer loop
      vertex -12.0855 -5 77
      vertex -11.1573 -5 76.7676
      vertex -11.1 -5 77
    endloop
  endfacet
  facet normal 0 -1 0
    outer loop
      vertex -12.0855 -5 77
      vertex -11.316 -5 76.5885
      vertex -11.1573 -5 76.7676
    endloop
  endfacet
  facet normal 0 -1 0
    outer loop
      vertex -12.0855 -5 77
      vertex -11.5397 -5 76.5036
      vertex -11.316 -5 76.5885
    endloop
  endfacet
  facet normal 0 -1 0
    outer loop
      vertex -12.0855 -5 77
      vertex -11.7773 -5 76.5325
      vertex -11.5397 -5 76.5036
    endloop
  endfacet
  facet normal 0 -1 0
    outer loop
      vertex -12.0855 -5 77
      vertex -11.9743 -5 76.6684
      vertex -11.7773 -5 76.5325
    endloop
  endfacet
  facet normal 0 -1 0
    outer loop
      vertex -12.0855 -5 77
      vertex -9.1 -5 82
      vertex -10.1 -5 83
    endloop
  endfacet
  facet normal -0.88548 0 -0.464678
    outer loop
      vertex -12.0855 5 76.8803
      vertex -11.9743 5 76.6684
      vertex -11.9743 -5 76.6684
    endloop
  endfacet
  facet normal 0 1 0
    outer loop
      vertex -12.0855 5 76.8803
      vertex -12.0855 5 77
      vertex -11.9743 5 76.6684
    endloop
  endfacet
  facet normal 0 1 0
    outer loop
      vertex -12.0855 5 77
      vertex -10.1 5 83
      vertex -9.1 5 82
    endloop
  endfacet
  facet normal 0 1 0
    outer loop
      vertex -12.0855 5 77
      vertex -11.1 5 77
      vertex -11.1573 5 76.7676
    endloop
  endfacet
  facet normal 0 1 0
    outer loop
      vertex -12.0855 5 77
      vertex -11.1573 5 76.7676
      vertex -11.316 5 76.5885
    endloop
  endfacet
  facet normal 0 1 0
    outer loop
      vertex -12.0855 5 77
      vertex -11.316 5 76.5885
      vertex -11.5397 5 76.5036
    endloop
  endfacet
  facet normal 0 1 0
    outer loop
      vertex -12.0855 5 77
      vertex -11.5397 5 76.5036
      vertex -11.7773 5 76.5325
    endloop
  endfacet
  facet normal 0 1 0
    outer loop
      vertex -12.0855 5 77
      vertex -11.7773 5 76.5325
      vertex -11.9743 5 76.6684
    endloop
  endfacet
  facet normal 0 1 0
    outer loop
      vertex -12.0855 5 77
      vertex -9.1 5 82
      vertex -11.1 5 77
    endloop
  endfacet
  facet normal 0 -1 0
    outer loop
      vertex -12.1 -5 77
      vertex -10.1 -5 83
      vertex -12.1 -5 91.1
    endloop
  endfacet
  facet normal 0 -1 0
    outer loop
      vertex -12.1 -5 77
      vertex -12.0855 -5 77
      vertex -10.1 -5 83
    endloop
  endfacet
  facet normal 0 0 -1
    outer loop
      vertex -12.1 -5 77
      vertex -12.0855 5 77
      vertex -12.0855 -5 77
    endloop
  endfacet
  facet normal -1 0 0
    outer loop
      vertex -12.1 -5 77
      vertex -12.1 -5 91.1
      vertex -12.1 5 91.1
    endloop
  endfacet
  facet normal 0 0 -1
    outer loop
      vertex -12.1 -5 77
      vertex -12.1 5 77
      vertex -12.0855 5 77
    endloop
  endfacet
  facet normal -1 0 0
    outer loop
      vertex -12.1 -5 77
      vertex -12.1 5 91.1
      vertex -12.1 5 77
    endloop
  endfacet
  facet normal 0 -1 0
    outer loop
      vertex -12.1 -5 91.1
      vertex -10.1 -5 83
      vertex -10.1 -5 90.1
    endloop
  endfacet
  facet normal 0 -1 0
    outer loop
      vertex -12.1 -5 91.1
      vertex -10.1 -5 90.1
      vertex -11.1 -5 92.1
    endloop
  endfacet
  facet normal -0.707107 0 0.707107
    outer loop
      vertex -12.1 -5 91.1
      vertex -11.1 -5 92.1
      vertex -11.1 5 92.1
    endloop
  endfacet
  facet normal -0.707107 0 0.707107
    outer loop
      vertex -12.1 -5 91.1
      vertex -11.1 5 92.1
      vertex -12.1 5 91.1
    endloop
  endfacet
  facet normal 0 1 0
    outer loop
      vertex -12.1 5 77
      vertex -10.1 5 83
      vertex -12.0855 5 77
    endloop
  endfacet
  facet normal 0 1 0
    outer loop
      vertex -12.1 5 77
      vertex -12.1 5 91.1
      vertex -10.1 5 83
    endloop
  endfacet
  facet normal 0 1 0
    outer loop
      vertex -12.1 5 91.1
      vertex -10.1 5 90.1
      vertex -10.1 5 83
    endloop
  endfacet
  facet normal 0 1 0
    outer loop
      vertex -12.1 5 91.1
      vertex -11.1 5 92.1
      vertex -10.1 5 90.1
    endloop
  endfacet
  facet normal 0 0 -1
    outer loop
      vertex -2 -5 89.1
      vertex -2 5 89.1
      vertex 2 5 89.1
    endloop
  endfacet
  facet normal 0 -1 0
    outer loop
      vertex -2 -5 89.1
      vertex 2 -5 89.1
      vertex 3 -5 90.1
    endloop
  endfacet
  facet normal 0 0 -1
    outer loop
      vertex -2 -5 89.1
      vertex 2 5 89.1
      vertex 2 -5 89.1
    endloop
  endfacet
  facet normal 0 -1 0
    outer loop
      vertex -3 -5 90.1
      vertex -2 -5 89.1
      vertex 3 -5 90.1
    endloop
  endfacet
  facet normal -0.707107 0 -0.707107
    outer loop
      vertex -3 -5 90.1
      vertex -3 5 90.1
      vertex -2 -5 89.1
    endloop
  endfacet
  facet normal 0 -1 0
    outer loop
      vertex -3 -5 90.1
      vertex 3 -5 90.1
      vertex 11.1 -5 92.1
    endloop
  endfacet
  facet normal -0.707107 0 -0.707107
    outer loop
      vertex -3 5 90.1
      vertex -2 5 89.1
      vertex -2 -5 89.1
    endloop
  endfacet
  facet normal 0 1 0
    outer loop
      vertex -3 5 90.1
      vertex 2 5 89.1
      vertex -2 5 89.1
    endloop
  endfacet
  facet normal 0 1 0
    outer loop
      vertex -3 5 90.1
      vertex 3 5 90.1
      vertex 2 5 89.1
    endloop
  endfacet
  facet normal 1 0 0
    outer loop
      vertex -9.1 -5 78
      vertex -9.1 5 78
      vertex -9.1 -5 82
    endloop
  endfacet
  facet normal 1 0 0
    outer loop
      vertex -9.1 -5 82
      vertex -9.1 5 78
      vertex -9.1 5 82
    endloop
  endfacet
  facet normal -1 0 0
    outer loop
      vertex 10.1 -3 63
      vertex 10.1 -3 70
      vertex 10.1 3 70
    endloop
  endfacet
  facet normal 0 0 -1
    outer loop
      vertex 10.1 -3 63
      vertex 10.1 3 63
      vertex 24.1 3 63
    endloop
  endfacet
  facet normal -1 0 0
    outer loop
      vertex 10.1 -3 63
      vertex 10.1 3 70
      vertex 10.1 3 63
    endloop
  endfacet
  facet normal 0 -1 0
    outer loop
      vertex 10.1 -3 63
      vertex 12.1 -3 70
      vertex 10.1 -3 70
    endloop
  endfacet
  facet normal 0 -1 0
    outer loop
      vertex 10.1 -3 63
      vertex 24.1 -3 63
      vertex 12.1 -3 70
    endloop
  endfacet
  facet normal 0 0 -1
    outer loop
      vertex 10.1 -3 63
      vertex 24.1 3 63
      vertex 24.1 -3 63
    endloop
  endfacet
  facet normal -1 0 0
    outer loop
      vertex 10.1 -3 70
      vertex 10.1 5 77
      vertex 10.1 3 70
    endloop
  endfacet
  facet normal 0 -0.961524 -0.274721
    outer loop
      vertex 10.1 -3 70
      vertex 12.1 -3 70
      vertex 12.1 -5 77
    endloop
  endfacet
  facet normal 0 -0.961524 -0.274721
    outer loop
      vertex 10.1 -5 77
      vertex 10.1 -3 70
      vertex 12.1 -5 77
    endloop
  endfacet
  facet normal -1 0 0
    outer loop
      vertex 10.1 -5 77
      vertex 10.1 5 77
      vertex 10.1 -3 70
    endloop
  endfacet
  facet normal -1 0 0
    outer loop
      vertex 10.1 -5 83
      vertex 10.1 -5 90.1
      vertex 10.1 5 90.1
    endloop
  endfacet
  facet normal -1 0 0
    outer loop
      vertex 10.1 -5 83
      vertex 10.1 5 90.1
      vertex 10.1 5 83
    endloop
  endfacet
  facet normal 0 -1 0
    outer loop
      vertex 10.1 -5 83
      vertex 12.1 -5 77
      vertex 12.1 -5 91.1
    endloop
  endfacet
  facet normal 0 -1 0
    outer loop
      vertex 10.1 -5 83
      vertex 12.1 -5 91.1
      vertex 10.1 -5 90.1
    endloop
  endfacet
  facet normal 0 -1 0
    outer loop
      vertex 10.1 -5 90.1
      vertex 12.1 -5 91.1
      vertex 11.1 -5 92.1
    endloop
  endfacet
  facet normal 0 1 0
    outer loop
      vertex 10.1 3 63
      vertex 10.1 3 70
      vertex 12.1 3 70
    endloop
  endfacet
  facet normal 0 1 0
    outer loop
      vertex 10.1 3 63
      vertex 12.1 3 70
      vertex 24.1 3 63
    endloop
  endfacet
  facet normal 0 0.961524 -0.274721
    outer loop
      vertex 10.1 3 70
      vertex 10.1 5 77
      vertex 12.1 3 70
    endloop
  endfacet
  facet normal 0 0.961524 -0.274721
    outer loop
      vertex 10.1 5 77
      vertex 12.1 5 77
      vertex 12.1 3 70
    endloop
  endfacet
  facet normal 0 1 0
    outer loop
      vertex 10.1 5 83
      vertex 10.1 5 90.1
      vertex 12.1 5 91.1
    endloop
  endfacet
  facet normal 0 1 0
    outer loop
      vertex 10.1 5 83
      vertex 12.1 5 91.1
      vertex 12.1 5 77
    endloop
  endfacet
  facet normal 0 1 0
    outer loop
      vertex 10.1 5 90.1
      vertex 11.1 5 92.1
      vertex 12.1 5 91.1
    endloop
  endfacet
  facet normal 0.707107 0 0.707107
    outer loop
      vertex 11.1 -5 92.1
      vertex 12.1 -5 91.1
      vertex 12.1 5 91.1
    endloop
  endfacet
  facet normal 0.707107 0 0.707107
    outer loop
      vertex 11.1 -5 92.1
      vertex 12.1 5 91.1
      vertex 11.1 5 92.1
    endloop
  endfacet
  facet normal 0 1 0
    outer loop
      vertex 12.1 -1 65
      vertex 12.1 -1 80
      vertex 24.1 -1 70
    endloop
  endfacet
  facet normal 1 0 0
    outer loop
      vertex 12.1 -1 65
      vertex 12.1 1 65
      vertex 12.1 -1 80
    endloop
  endfacet
  facet normal 0 0 1
    outer loop
      vertex 12.1 -1 65
      vertex 24.1 -1 65
      vertex 12.1 1 65
    endloop
  endfacet
  facet normal 0 1 0
    outer loop
      vertex 12.1 -1 65
      vertex 24.1 -1 70
      vertex 24.1 -1 65
    endloop
  endfacet
  facet normal 1 0 0
    outer loop
      vertex 12.1 -1 80
      vertex 12.1 1 65
      vertex 12.1 1 80
    endloop
  endfacet
  facet normal 1 0 0
    outer loop
      vertex 12.1 -1 80
      vertex 12.1 1 80
      vertex 12.1 1 85
    endloop
  endfacet
  facet normal 1 0 0
    outer loop
      vertex 12.1 -1 80
      vertex 12.1 1 85
      vertex 12.1 -1 85
    endloop
  endfacet
  facet normal 0.640184 0 0.768221
    outer loop
      vertex 12.1 -1 80
      vertex 24.1 -3 70
      vertex 24.1 -1 70
    endloop
  endfacet
  facet normal 1 0 0
    outer loop
      vertex 12.1 -1 85
      vertex 12.1 1 85
      vertex 12.1 5 91.1
    endloop
  endfacet
  facet normal 0 -1 0
    outer loop
      vertex 12.1 -3 70
      vertex 24.1 -3 63
      vertex 24.1 -3 70
    endloop
  endfacet
  facet normal 0 -1 0
    outer loop
      vertex 12.1 -3 70
      vertex 24.1 -3 70
      vertex 12.1 -3 80
    endloop
  endfacet
  facet normal 1 0 0
    outer loop
      vertex 12.1 -3 80
      vertex 12.1 -1 80
      vertex 12.1 -1 85
    endloop
  endfacet
  facet normal 0.640184 0 0.768221
    outer loop
      vertex 12.1 -3 80
      vertex 24.1 -3 70
      vertex 12.1 -1 80
    endloop
  endfacet
  facet normal 1 0 0
    outer loop
      vertex 12.1 -5 77
      vertex 12.1 -3 70
      vertex 12.1 -3 80
    endloop
  endfacet
  facet normal 1 0 0
    outer loop
      vertex 12.1 -5 77
      vertex 12.1 -3 80
      vertex 12.1 -5 91.1
    endloop
  endfacet
  facet normal 1 0 0
    outer loop
      vertex 12.1 -5 91.1
      vertex 12.1 -1 85
      vertex 12.1 5 91.1
    endloop
  endfacet
  facet normal 1 0 0
    outer loop
      vertex 12.1 -5 91.1
      vertex 12.1 -3 80
      vertex 12.1 -1 85
    endloop
  endfacet
  facet normal 0 0 1
    outer loop
      vertex 12.1 1 65
      vertex 24.1 -1 65
      vertex 24.1 1 65
    endloop
  endfacet
  facet normal 0 -1 0
    outer loop
      vertex 12.1 1 65
      vertex 24.1 1 65
      vertex 24.1 1 70
    endloop
  endfacet
  facet normal 0 -1 0
    outer loop
      vertex 12.1 1 65
      vertex 24.1 1 70
      vertex 12.1 1 80
    endloop
  endfacet
  facet normal 1 0 0
    outer loop
      vertex 12.1 1 80
      vertex 12.1 3 80
      vertex 12.1 1 85
    endloop
  endfacet
  facet normal 0.640184 0 0.768221
    outer loop
      vertex 12.1 1 80
      vertex 24.1 1 70
      vertex 12.1 3 80
    endloop
  endfacet
  facet normal 1 0 0
    outer loop
      vertex 12.1 1 85
      vertex 12.1 3 80
      vertex 12.1 5 91.1
    endloop
  endfacet
  facet normal 0 1 0
    outer loop
      vertex 12.1 3 70
      vertex 12.1 3 80
      vertex 24.1 3 70
    endloop
  endfacet
  facet normal 1 0 0
    outer loop
      vertex 12.1 3 70
      vertex 12.1 5 77
      vertex 12.1 3 80
    endloop
  endfacet
  facet normal 0 1 0
    outer loop
      vertex 12.1 3 70
      vertex 24.1 3 70
      vertex 24.1 3 63
    endloop
  endfacet
  facet normal 1 0 0
    outer loop
      vertex 12.1 3 80
      vertex 12.1 5 77
      vertex 12.1 5 91.1
    endloop
  endfacet
  facet normal 0.640184 0 0.768221
    outer loop
      vertex 12.1 3 80
      vertex 24.1 1 70
      vertex 24.1 3 70
    endloop
  endfacet
  facet normal 0.707107 0 -0.707107
    outer loop
      vertex 2 -5 89.1
      vertex 2 5 89.1
      vertex 3 -5 90.1
    endloop
  endfacet
  facet normal 0.707107 0 -0.707107
    outer loop
      vertex 2 5 89.1
      vertex 3 5 90.1
      vertex 3 -5 90.1
    endloop
  endfacet
  facet normal 1 0 0
    outer loop
      vertex 24.1 -1 65
      vertex 24.1 3 63
      vertex 24.1 1 65
    endloop
  endfacet
  facet normal 1 0 0
    outer loop
      vertex 24.1 -3 63
      vertex 24.1 -1 65
      vertex 24.1 -3 70
    endloop
  endfacet
  facet normal 1 0 0
    outer loop
      vertex 24.1 -3 63
      vertex 24.1 3 63
      vertex 24.1 -1 65
    endloop
  endfacet
  facet normal 1 0 0
    outer loop
      vertex 24.1 -3 70
      vertex 24.1 -1 65
      vertex 24.1 -1 70
    endloop
  endfacet
  facet normal 1 0 0
    outer loop
      vertex 24.1 1 65
      vertex 24.1 3 63
      vertex 24.1 3 70
    endloop
  endfacet
  facet normal 1 0 0
    outer loop
      vertex 24.1 1 65
      vertex 24.1 3 70
      vertex 24.1 1 70
    endloop
  endfacet
  facet normal 0 -1 0
    outer loop
      vertex 3 -5 90.1
      vertex 10.1 -5 90.1
      vertex 11.1 -5 92.1
    endloop
  endfacet
  facet normal 0 0 -1
    outer loop
      vertex 3 -5 90.1
      vertex 10.1 5 90.1
      vertex 10.1 -5 90.1
    endloop
  endfacet
  facet normal 0 0 -1
    outer loop
      vertex 3 -5 90.1
      vertex 3 5 90.1
      vertex 10.1 5 90.1
    endloop
  endfacet
  facet normal 0 1 0
    outer loop
      vertex 3 5 90.1
      vertex 11.1 5 92.1
      vertex 10.1 5 90.1
    endloop
  endfacet
  facet normal 0 -1 0
    outer loop
      vertex 9.1 -5 78
      vertex 10.1 -5 77
      vertex 12.1 -5 77
    endloop
  endfacet
  facet normal 0 -1 0
    outer loop
      vertex 9.1 -5 78
      vertex 12.1 -5 77
      vertex 9.1 -5 82
    endloop
  endfacet
  facet normal -1 0 0
    outer loop
      vertex 9.1 -5 78
      vertex 9.1 -5 82
      vertex 9.1 5 82
    endloop
  endfacet
  facet normal -0.707107 0 -0.707107
    outer loop
      vertex 9.1 -5 78
      vertex 9.1 5 78
      vertex 10.1 -5 77
    endloop
  endfacet
  facet normal -1 0 0
    outer loop
      vertex 9.1 -5 78
      vertex 9.1 5 82
      vertex 9.1 5 78
    endloop
  endfacet
  facet normal -0.707107 0 0.707107
    outer loop
      vertex 9.1 -5 82
      vertex 10.1 -5 83
      vertex 10.1 5 83
    endloop
  endfacet
  facet normal -0.707107 0 0.707107
    outer loop
      vertex 9.1 -5 82
      vertex 10.1 5 83
      vertex 9.1 5 82
    endloop
  endfacet
  facet normal 0 -1 0
    outer loop
      vertex 9.1 -5 82
      vertex 12.1 -5 77
      vertex 10.1 -5 83
    endloop
  endfacet
  facet normal -0.707107 0 -0.707107
    outer loop
      vertex 9.1 5 78
      vertex 10.1 5 77
      vertex 10.1 -5 77
    endloop
  endfacet
  facet normal 0 1 0
    outer loop
      vertex 9.1 5 78
      vertex 12.1 5 77
      vertex 10.1 5 77
    endloop
  endfacet
  facet normal 0 1 0
    outer loop
      vertex 9.1 5 78
      vertex 9.1 5 82
      vertex 12.1 5 77
    endloop
  endfacet
  facet normal 0 1 0
    outer loop
      vertex 9.1 5 82
      vertex 10.1 5 83
      vertex 12.1 5 77
    endloop
  endfacet
endsolid OpenSCAD_Model
